<svg xmlns="http://www.w3.org/2000/svg" viewBox="0 0 107 80"><path fill="#fff" d="M36.3 55a2.3 2.3 0 0 1 1.4-2.1v.3l-1.2 2.6-.2-.9Z"/><path fill="#fff" d="M2.2 56.4a15.2 15.2 0 0 1 .5-11.5l1-2.6a20.1 20.1 0 0 0 .8-5.9 3.8 3.8 0 0 0 0-.9l.7-3.3c.6-2.6 1.1-5 2.9-7 1.2-1.5 2.6-2.8 3.7-4.3a13 13 0 0 0 6 4.8l5.3 2.6 1.5.6c1.2.5 2.5.9 3.7 1.5a12 12 0 0 1 4.6 5.2c-.3-.4 0-1.5 0-2-.2-.8-.6-1.6-1-2.3 1.8 1.7 3.3 3.9 4.3 6.2.3-.8.3-1.7.4-2.6 1.4 1.2 2 3.2 2 5a18 18 0 0 1-1.2 5.5 7.9 7.9 0 0 0-.6 3.6l.4.2c.3.1 1.2-1.7 1.3-1.9l.3-.4.4-.2a3.4 3.4 0 0 1 3.7 2.2 3.4 3.4 0 0 1-1.3 4 .7.7 0 0 0-1 .5 3.4 3.4 0 0 1-2.9-.5c.4-.2.7-.3 1-.2a.7.7 0 0 0 .7-.7.7.7 0 0 0-.6-.6 3.7 3.7 0 0 0-3.8 4c.1.7.4 1.3.8 1.9l-.9 1.5a47 47 0 0 1-5 5 28.7 28.7 0 0 1-6.3 3.4c-3 1.3-8.8 3-12.9.8-1.4-.8-2.8-2-4-3.5a27.3 27.3 0 0 1-4.5-8.1Zm30-18.6a.3.3 0 0 0-.2-.6l-.2.1c-.5.4-1.2.6-1.9.5v-.5c-.2-.5-.4-1-1-1-.4-.2-.8.1-1.2.3a9.8 9.8 0 0 0-3 3.6l-.5 1.2.7 1.5-1.6.6-.2 1c-.3 1-.4 2.3.4 3l.1.2.6-.3a.7.7 0 0 0 .6 0c.8-.1 1.6-.2 2.4-.1a.7.7 0 0 0 .7-.6.7.7 0 0 0-.6-.7H26l.6-2.2c.4-1.2 1-2.3 1.8-3.3l.7-.9a1.6 1.6 0 0 0 1.6.7.3.3 0 0 0 .3-.4.3.3 0 0 0-.4-.3 1 1 0 0 1-1-.6l.2-.6a3.2 3.2 0 0 0 2.4-.6Zm-6.8 20.7c.4-.6.8-1.4.1-2.6a7 7 0 0 0-1.4-1.7l-1-.6c-.8-.1-1.4.2-1.8.4l-.8.5c-1.1.5-2 1-3.2 1.2a8.2 8.2 0 0 1-7.4-2.2c-.3-.2-.8-.7-1.5-.6-.5.1-.9.5-1 .8L6.6 55a1.8 1.8 0 0 0 0 1.6c.6 1.3 1.6 2 2.6 2.7l.3.2a15.6 15.6 0 0 0 8 2.3 9.7 9.7 0 0 0 7.7-3.3Zm-9.8-10.7a.7.7 0 0 0-.5-.8c-1.3-.3-1.9-.8-2-1.4v-.4l.5-.1c.3 0 .5-.2.8-.3a4 4 0 0 0 1.1-1.3l.1-.1a.7.7 0 0 0-.7-1 .7.7 0 0 0-.4.3l-.1.1-.7.9-.4.1a2 2 0 0 0-1 .5c-.4.3-.6 1-.5 1.5.3 1.7 2.3 2.3 3 2.5a.7.7 0 0 0 .8-.5Zm-2.4-14c.1-.5 0-1-.4-1.1-.6-.3-1.3 0-1.8.4l-.2.2-.5-.5c-.2-.4-.3-.9-.3-1.5a.3.3 0 0 0-.4-.3.3.3 0 0 0-.3.4c0 .7.2 1.2.4 1.7l.6.7-.5.5-.6-.3c-.2-.1-.4-.4-.6-.8a.3.3 0 0 0-.5.3c.2.5.4.8.7 1l.6.4-.3.6c-.4.5-.7 1.1-.9 1.7l.8 1.4-1.4.8a40 40 0 0 0-.4 2.5l.1 1.1a1.3 1.3 0 0 0 1.7.7l.5-.4c.7-.8.8-2 1-3 .2-1.5.8-3 1.6-4.4.3-.4 1-1.4 1.1-2.2Z"/><path d="M37.7 52.9a2.4 2.4 0 0 0-1.2 3 27.6 27.6 0 0 0 1.2-3ZM1 56.9a16.5 16.5 0 0 1 .6-12.4l.8-2.6c.4-1.2.6-2.5.7-3.8l.1-2.8.6-5.1c.2-1.7.8-3.3 1.3-4.9a22 22 0 0 1 4.3-8.2 13 13 0 0 1 3.7-3c1.1-.6 3.1-1.5 4.4-.5 0-.5 1.5-1.1 2-1.3l2.9-.1c4 0 8 .4 11.7 1.7 5.4 2 10 6.3 12.4 11.5.3-3 1-6 2.4-8.8 1-2.1 3-4 6.1-5.7A28 28 0 0 1 59 9a8 8 0 0 1 2-2.7c3.2-3 6.8-4.9 11-5.6 6.5-1.1 14-1.7 20 3 1.5 1.1 2.2 3 2 5.6-.1 1.8-.7 4-1.8 6.3 0 .2-.2.3-.3.4a29 29 0 0 1 6 5c1.8 2 3.1 4.5 3.2 7.1.1 2.3-.7 4.6.2 6.7.6 1.3 1.7 2.2 2.6 3.3 1.8 2.2 2.6 5.2 2.6 8 0 7.1-3.2 13.7-3.3 20.8 0 2 .1 4 1 5.6.1.1-3.5.6-3.8.6-1.3 0-2.3-.3-3.5-.6-2.6-.7-5.3-.5-7.7.6a28.1 28.1 0 0 1-8.6 2.3 61 61 0 0 0-11.3 2.2c-3.5 1-6 0-9.5.3-1.1 0-2.3.6-2.7 1.5 0 .2-.2.4-.3.4h-.5c-11.6-2.3-5-19-7.4-26.6-.5-1.8-1.4-3.5-2.1-5.2l-.5-1.4a24 24 0 0 1-4.3 6.6 3.7 3.7 0 0 1-3.2 5.4h-.1c-.4 0-.7 0-1-.2a4.1 4.1 0 0 1-.7-.4h-.3l-.1-.2h-.2v-.1l-.1-.1v-.1H36v-.1l-.2-.2a3.7 3.7 0 0 1 3-5.8.7.7 0 0 1 .5.6.7.7 0 0 1-.6.7c-.4 0-.7 0-1 .2a3.4 3.4 0 0 0 2.9.5.7.7 0 0 1 .6-.5h.3a3.4 3.4 0 0 0-2.4-6.1h-.4v.1l-.3.4c-.1.2-1 2-1.3 2l-.4-.3c-.2-1.2.2-2.4.6-3.6a18 18 0 0 0 1.2-5.4c0-2-.6-4-2-5.1-.1.9-.1 1.8-.4 2.6a18 18 0 0 0-4.4-6.2c.5.7.9 1.5 1 2.3.1.5-.2 1.6 0 2-1-2-2.5-4-4.5-5.1-1.2-.7-2.5-1-3.7-1.6l-1.6-.6-5.3-2.6a13.3 13.3 0 0 1-5.9-4.8c-1.1 1.5-2.5 2.8-3.7 4.3-1.8 2-2.3 4.4-3 7l-.6 3.3v.9l-.1.6c0 1.8-.3 3.6-.8 5.3l-1 2.6-.8 2.6c-.8 2.7-.6 5.8.4 9 .8 2.5 2.3 5.1 4.5 8 1.2 1.5 2.6 2.7 4 3.5 4 2.3 9.8.5 12.9-.8a28.7 28.7 0 0 0 11.3-8.4l1-1.5c.4.6 1 1 1.7 1.2l-1.3 2c-.2.2-.8 2-.4 2.2a2 2 0 0 1-1.3-1.2v-.3A30.2 30.2 0 0 1 24 68.4a24 24 0 0 1-8.8 2c-1.8 0-3.6-.3-5.2-1.2A26.9 26.9 0 0 1 .8 56.8Zm94.7-2.5c2.4-3.2 2.8-8.7 2.2-12.6-.6-3.5-2.4-6.7-3-10.2-.3-2.6-.5-5.4-1.1-8a35 35 0 0 0-2.4-7.5C90.8 16 84 14.4 75 16a52 52 0 0 0-16.9 7.6c3.2 5.9 1.7 13.3 3.8 19.7.6 1.9 1.5 3.7 2 5.6.9 2.5 1 4.6-.1 7a8 8 0 0 0 0 6.7 9.7 9.7 0 0 1 1.1-7.4c2.9 2.7 5.1 4.3 8.7 5.4 4.2 1.3 8 1 12.3 0a17 17 0 0 0 9.7-6.2ZM91 14.7c2.6-6.2 1.4-8.8 0-10a17 17 0 0 0-9-3.3h-2.4c-2.2 0-4.6.2-7.6.7a20 20 0 0 0-10.4 5.2c-.5.5-1 1.3-1.6 2.3a.7.7 0 0 1-.4.5 38 38 0 0 0-4.1 13.7c1-.8 3-2.1 5.5-3.5 3.5-2 8.8-4.7 13.7-5.6a45.8 45.8 0 0 1 16.3 0Zm-35 1.4c.6-1.8 1.2-3.5 2-5.2-2.3 1-6.4 3.1-8 6.3a24.7 24.7 0 0 0-2.3 11.5l.4 1.6c1.3-1.7 3.7-4.4 6.3-5.7 0-.7 0-1.7.2-3 .4-1.9.8-3.7 1.4-5.5ZM54.2 47l-.1-1.5a13 13 0 0 0-1.2-4.3 3.4 3.4 0 0 0-4.2 2.3 3.4 3.4 0 0 0 2.2 4.2 3.4 3.4 0 0 0 3.3-.7ZM41 55.1l-.1-.8a27.8 27.8 0 0 0-2.4 3 2.4 2.4 0 0 0 2.5-2.2Z"/><path fill="#fff" d="M97.8 41.8c.6 3.9.2 9.4-2.2 12.6a17.3 17.3 0 0 1-9.7 6.3c-4.2 1-8.1 1.2-12.3-.1a20.2 20.2 0 0 1-8.7-5.4l-.3.6-.3.7c-.8 2-1 4-.4 6.1a8 8 0 0 1-.1-6.6c1-2.5 1-4.6.2-7.1-.6-2-1.5-3.7-2.1-5.6-2-6.4-.6-13.8-3.8-19.7a51.9 51.9 0 0 1 17-7.6c8.8-1.6 15.7 0 16.2.1a40 40 0 0 1 2.4 7.4c.6 2.7.8 5.5 1.2 8.1.5 3.5 2.3 6.7 2.9 10.2Zm-4 1.8-.7-.8a8.7 8.7 0 0 0-8.6-1.2l-2.3 1c-1.3.6-2.8.7-4 1.3-1.1.6-2 1.5-2.8 2.4-.5.6-1 1.2-1.3 1.9-.1.3-.7 1.9-.2 2.2.2.1.3 0 .4 0l1-.5.4-.3c-.3 1-.1 2 .6 3 1.1 1.4 3.2 1.6 4.6 1.6h.1c2.8 0 5-.4 7-1.3 2.4-1.1 4.2-3 5-5.2a6 6 0 0 0 .4-2.1c-.1-.6-.3-1.2-.7-1.7a2 2 0 0 0 1-.3Zm-3.4-9.8c.2-.4.2-.7.2-1a9.3 9.3 0 0 0-.4-2.6l-1.3-.7.7-1.4a10 10 0 0 0-.8-1.7l-.8-1.1-1.1-1.1c-.5-.4-1.2-.8-1.8-.5-.4.2-.5.6-.4 1 .2.8.8 1.7 1.1 2.1a14 14 0 0 1 1.6 4.3c.2 1 .3 2.2 1 3a1.3 1.3 0 0 0 2-.3ZM89 20.6a.7.7 0 0 0-.2-.9c-1.1-.7-2.4-1-3.6-.8a3.8 3.8 0 0 0-3 2.4.7.7 0 0 0 .4.8.7.7 0 0 0 .8-.4c.2-.8 1-1.4 2-1.5a4 4 0 0 1 2.7.6.7.7 0 0 0 1-.2Zm-3.5 18.6c.8-1.1.5-2.6 0-3.6a12 12 0 0 0-1.7-2.1l-.4-.5-.5-.7-.2-.5a.7.7 0 0 0-1.2.6l.2.4.7 1.1.4.5a9 9 0 0 1 1.5 1.8c.5 1 .4 1.9 0 2.3a1.5 1.5 0 0 1-1.6.6.7.7 0 0 0-.8.4.7.7 0 0 0 .4.8l.8.2c1 0 1.9-.5 2.4-1.3Zm-10.7-1c.8-.8.7-2 .5-3.1l-.3-.8-1.5-.7.6-1.5-.5-1.1c0-.3-.3-.6-.4-.9-.7-1-1.5-1.9-2.4-2.5-.4-.3-.8-.5-1.3-.4-.5 0-.7.6-.8 1-.2.6 0 1.2.3 1.7l1.1 1.4c.7 1 1.3 2 1.7 3.2.3 1 .5 2 1 2.9.2.6.8 1.2 1.4 1 .2 0 .4 0 .6-.2ZM72 24.7a.7.7 0 0 0-.2-.9c-1-.5-1.9-.7-2.7-.6a4 4 0 0 0-2.2 1.1 10.2 10.2 0 0 0-1.4 2 .7.7 0 0 0 .6.8.7.7 0 0 0 .6-.3l1.2-1.5c.3-.3.8-.7 1.4-.8a3 3 0 0 1 1.8.4.7.7 0 0 0 .9-.2Z"/><path d="M93 42.8c.4.2.6.5.8.8l-1.1.3c.3.5.6 1 .7 1.7 0 .6 0 1.3-.3 2a9.8 9.8 0 0 1-5.1 5.3c-2 .9-4.3 1.3-7 1.3-1.5 0-3.5-.2-4.6-1.7-.7-.9-1-1.8-.6-3a3 3 0 0 0-.5.4 2 2 0 0 1-.9.5H74c-.5-.3 0-1.9.2-2.2a8 8 0 0 1 1.3-1.9c.8-1 1.7-1.8 2.8-2.4 1.2-.6 2.7-.7 4-1.3l2.3-1a8.6 8.6 0 0 1 8.6 1.2Zm-1.2 4.4.3-1.5c-.1-.7-.6-1.3-1.3-1.7-2.3.4-4 1.8-6.1 2.7-1.2.6-2.4.6-3.6 1l-3.5 1.1c-.3.3-.5.5-.6.8-.3.9-.2 1.5.3 2.1.3.4.7.7 1.2.8 0-.5.2-1.1.5-1.6a4 4 0 0 1 1.6-1.8c1.1-.9 2.7-1 4-.5a5 5 0 0 1 6.6-.1c.2-.4.5-.8.6-1.3Zm-4.4 4.5a9.2 9.2 0 0 0 3-2.2 3.7 3.7 0 0 0-5.8 1 .7.7 0 0 1-.9.3.7.7 0 0 1-.2-.8c0-.1 0-.3.2-.4-.9-.1-1.7 0-2.4.5-.8.6-1.6 1.8-1.5 2.7h1c2.7.1 4.8-.3 6.6-1.1Z"/><path fill="#fff" d="M92 45.7c.1.4 0 1-.2 1.5-.1.5-.4.9-.6 1.3a5 5 0 0 0-6.6 0 4.4 4.4 0 0 0-4 .6c-.7.4-1.3 1-1.6 1.8a4 4 0 0 0-.5 1.6 2 2 0 0 1-1.2-.8c-.5-.6-.6-1.2-.3-2 .1-.4.3-.6.6-.9l3.5-1c1.2-.5 2.4-.5 3.6-1 2-1 3.8-2.4 6-2.8.8.4 1.3 1 1.4 1.7Zm-.9-40.9c1.4 1 2.6 3.7 0 10a45.8 45.8 0 0 0-16.3 0c-5 .8-10.2 3.4-13.7 5.5a76.2 76.2 0 0 0-5.5 3.5c0-1.5.6-4.2 1.6-7.3a38 38 0 0 1 2.9-7c.5-1 1.1-1.7 1.6-2.2a20 20 0 0 1 10.4-5.2 44.6 44.6 0 0 1 10-.7c3.5.3 6.5 1.4 9 3.4Z"/><path d="M90.6 32.7c0 .4 0 .7-.2 1a1.3 1.3 0 0 1-1.6.7l-.5-.4c-.6-.7-.7-2-.9-2.9-.3-1.5-.8-3-1.6-4.3-.3-.4-1-1.3-1.1-2-.1-.5 0-1 .4-1.1.6-.3 1.3 0 1.8.4l1.1 1.2.8 1.1.8 1.7-.7 1.4 1.3.7a45 45 0 0 1 .4 2.5Z"/><path fill="#fff" d="M90.4 49.5a8 8 0 0 1-3 2.2 15.3 15.3 0 0 1-7.6 1.1c0-.9.7-2 1.5-2.7.7-.4 1.5-.6 2.4-.5l-.2.4a.7.7 0 0 0 .6 1 .7.7 0 0 0 .5-.4 3.7 3.7 0 0 1 4.3-1.9c.6.2 1 .5 1.5.8Z"/><path d="M88.7 19.7a.7.7 0 0 1 .2 1 .7.7 0 0 1-.9.1 4 4 0 0 0-2.7-.6c-1 .1-1.8.7-2 1.5a.7.7 0 0 1-.8.5.7.7 0 0 1-.5-.9 3.8 3.8 0 0 1 3-2.4c1.3-.2 2.6 0 3.7.8Zm-3.4 15.9c.6 1 .9 2.5 0 3.6a2.9 2.9 0 0 1-3.1 1.1.7.7 0 0 1-.4-.8.7.7 0 0 1 .8-.4 1.5 1.5 0 0 0 1.7-.6c.3-.4.4-1.3-.1-2.3l-1.5-1.8-.4-.5-.7-1-.2-.5a.7.7 0 0 1 .3-.9.7.7 0 0 1 .9.3l.2.5.5.7.4.5a10 10 0 0 1 1.6 2Zm-10.1-.5c.2 1 .3 2.3-.5 3-.2.2-.4.4-.6.4-.6 0-1.2-.5-1.5-1.1l-.9-2.9a14 14 0 0 0-1.7-3.2c-.4-.4-.8-.9-1-1.4-.4-.5-.6-1.1-.4-1.7.1-.4.3-1 .8-1 .5-.1 1 .1 1.3.4a9.5 9.5 0 0 1 2.8 3.4l.5 1-.6 1.5 1.5.7.3.8Zm-3.5-11.3a.7.7 0 0 1 .2.9.7.7 0 0 1-.9.2 3 3 0 0 0-1.8-.4c-.6 0-1.1.5-1.4.8-.5.4-.8 1-1.2 1.5a.7.7 0 0 1-1-.7l1.2-1.8a4 4 0 0 1 2.2-1.1 4 4 0 0 1 2.7.6Z"/><path fill="#fff" d="M58 10.9a45.4 45.4 0 0 0-3.7 13.7c-2.6 1.3-5 4-6.3 5.7 0-.5-.2-1-.4-1.6A24.5 24.5 0 0 1 50 17.2c1.5-3.2 5.6-5.3 8-6.3Zm-4 34.5.2 1.5a3.4 3.4 0 0 1-5.5-3.5 3.4 3.4 0 0 1 4.2-2.3 13 13 0 0 1 1.2 4.3Z"/><path d="M35.8 57.3h.2v.2h.1l.1.1.1.1.2.1v.1h.1l.1.1h.1v.1a4 4 0 0 0 .9.4c-.8-.2-1.4-.6-1.9-1.2Zm-3.5-19.9a.3.3 0 0 1 0 .4 3.3 3.3 0 0 1-2.5.6l-.2.6a1 1 0 0 0 1 .6.3.3 0 0 1 .4.4.3.3 0 0 1-.3.2 1.6 1.6 0 0 1-1-.1l-.6-.5-.7 1c-.8 1-1.4 2-1.8 3.2L26 46h1.3a.7.7 0 0 1 .6.7.7.7 0 0 1-.7.6 6.8 6.8 0 0 0-2.6.2l-.4-.1-.6.3v-.1c-.9-.8-.8-2-.5-3.2l.2-.9 1.6-.6-.7-1.5.5-1.2.5-.9c.7-1 1.5-2 2.5-2.7.4-.2.8-.5 1.3-.4.5.1.7.6.8 1l.1.6c.7.1 1.4 0 2-.5a.3.3 0 0 1 .4 0ZM25.5 56c.7 1 .3 2-.1 2.5a9.8 9.8 0 0 1-4.6 2.8c-1 .3-2 .4-3.2.4a15.6 15.6 0 0 1-8-2.3l-.3-.2c-1-.7-2-1.4-2.5-2.7a1.8 1.8 0 0 1 0-1.6c0-.4.3-.8.5-1.2.2-.3.6-.7 1.1-.8.7 0 1.2.4 1.5.6a8.2 8.2 0 0 0 7.4 2.2c1.2-.2 2.1-.7 3.2-1.2.3-.2.5-.4.9-.5.3-.2 1-.5 1.6-.4.5.1.8.4 1 .6a7 7 0 0 1 1.5 1.7Zm-1.1 1.6c.3-.4.4-1-1.2-2.4-.2-.1-.3-.3-.5-.3l-.8.3-.8.4a10.6 10.6 0 0 1-8.5 1 9.5 9.5 0 0 1-3.6-2l-.4-.3-.2.3a4.9 4.9 0 0 0-.5 1.2v.3c.5 1 1.2 1.5 2.1 2.1l.4.2a12.8 12.8 0 0 0 10.1 1.7c1.5-.4 3-1.4 3.9-2.4Z"/><path fill="#fff" d="M23.2 55.2c1.6 1.4 1.5 2 1.2 2.4-.9 1-2.4 2-4 2.4-1.7.6-3.8.5-6.1 0-1.5-.4-2.9-1-4-1.7l-.3-.2c-.9-.6-1.6-1.1-2-2.1l-.1-.3v-.3l.5-1 .2-.2s.2 0 .4.3a9.5 9.5 0 0 0 8.5 2.5c1.4-.2 2.5-.8 3.6-1.4l.9-.4c.2-.2.5-.3.7-.3.2 0 .3.2.5.3Z"/><path d="M15.1 47a.7.7 0 0 1 .5.8.7.7 0 0 1-.8.5c-.7-.2-2.7-.8-3-2.5 0-.6 0-1.2.5-1.5a2 2 0 0 1 1-.5l.4-.1.7-.9a8.7 8.7 0 0 1 .3-.3.7.7 0 0 1 1 .4.7.7 0 0 1-.1.5l-.1.1a4 4 0 0 1-1.1 1.3l-.8.3-.4.1s-.1.2 0 .4c0 .6.6 1 2 1.4Zm-2.3-14.3c.5.2.6.6.4 1-.1.8-.8 1.8-1 2.2-.9 1.4-1.5 2.9-1.7 4.4-.2 1-.3 2.2-1 3a1.3 1.3 0 0 1-2.2-.3l-.1-1a9.6 9.6 0 0 1 .4-2.6l1.4-.8-.8-1.4c.2-.6.5-1.2.9-1.7l.3-.6-.6-.4a3 3 0 0 1-.7-1 .3.3 0 0 1 .1-.4.3.3 0 0 1 .4.1l.6.8.6.3.5-.5-.5-.7a4 4 0 0 1-.5-1.7.3.3 0 0 1 .3-.4.3.3 0 0 1 .4.3c0 .6.1 1.1.3 1.5l.5.5.2-.2c.5-.4 1.2-.7 1.8-.4Z"/></svg>
