<svg viewBox="0 0 280 136" xmlns="http://www.w3.org/2000/svg">
<path d="M0.909752 61.2554C0.909752 63.0474 1.56575 64.1194 3.58175 64.1194C5.43775 64.1194 5.93375 63.1914 5.93375 61.9754V60.6954H4.42975V61.4954C4.42975 62.4554 4.04575 62.8714 3.45375 62.8714C2.94175 62.8714 2.50975 62.6314 2.50975 61.2714V55.6074C2.50975 54.2154 2.66975 53.6234 3.50175 53.6234C4.17375 53.6234 4.42975 54.0874 4.42975 54.8234V55.6234H5.93375V54.4714C5.93375 53.1754 5.19775 52.3754 3.61375 52.3754C1.43775 52.3754 0.909752 53.7994 0.909752 55.4154V61.2554ZM8.31075 64.0234H9.91075V58.7754H12.0388V64.0234H13.6388V52.4714H12.0388V57.4314H9.91075V52.4714H8.31075V64.0234ZM16.0104 64.0234H17.6104L18.1384 61.0794H20.6344L21.1624 64.0234H22.7624L20.4104 52.4714H18.5544L16.0104 64.0234ZM19.3864 54.1674H19.4184L20.4104 59.7354H18.3784L19.3864 54.1674ZM25.1358 64.0234H26.5438V54.1674H26.5758L28.4638 64.0234H30.7678V52.4714H29.2638V62.0714H29.2318L27.3438 52.4714H25.1358V64.0234ZM35.1483 53.8154H35.7883C37.1483 53.8154 37.3243 54.3914 37.3243 56.1034V60.0714C37.3243 62.0554 37.1003 62.6794 35.9163 62.6794H35.1483V53.8154ZM33.5483 64.0234H35.8683C38.3963 64.0234 38.9243 63.0954 38.9243 60.1354V56.6954C38.9243 53.3354 38.7163 52.4714 36.1243 52.4714H33.5483V64.0234ZM41.6639 64.0234H43.2639V58.9994H43.8079C44.8639 58.9994 45.0559 59.2874 45.0559 60.3754V62.9834C45.0559 63.4474 45.0879 63.7354 45.2479 64.0234H46.7519C46.6559 63.5434 46.6559 62.9674 46.6559 62.5514V60.0394C46.6559 58.9514 46.2879 58.3914 45.1999 58.2794V58.2474C46.5119 57.8474 46.7199 57.1754 46.7199 55.6234C46.7199 53.0954 46.4799 52.4714 44.1439 52.4714H41.6639V64.0234ZM43.2639 53.8154H44.0319C45.0239 53.8154 45.1199 53.9754 45.1199 55.6874C45.1199 57.4154 44.9439 57.6554 43.6799 57.6554H43.2639V53.8154ZM49.0666 64.0234H50.6666L51.1946 61.0794H53.6906L54.2186 64.0234H55.8186L53.4666 52.4714H51.6106L49.0666 64.0234ZM52.4426 54.1674H52.4746L53.4666 59.7354H51.4346L52.4426 54.1674ZM16.7115 69.6234C17.1755 69.6234 17.3995 70.0234 17.3995 70.7274C17.3995 71.4954 17.2395 72.0394 16.5355 72.9194C16.0875 71.9434 16.0075 71.4154 16.0075 70.8074C16.0075 70.0554 16.1675 69.6234 16.7115 69.6234ZM17.0795 73.9594C18.1515 72.9674 18.7435 72.0394 18.7435 70.6634C18.7435 69.3194 18.1515 68.4714 16.6955 68.4714C15.4955 68.4714 14.6635 69.3034 14.6635 70.8874C14.6635 71.8474 14.9675 72.7114 15.5275 73.7514C14.3115 74.3434 14.2315 75.7834 14.2315 77.1594C14.2315 79.0474 14.6475 80.1194 16.4875 80.1194C17.0155 80.1194 17.6715 79.9754 18.1035 79.6874L18.2475 80.0234H19.8475L19.1435 78.4874C19.3675 78.1834 19.5115 77.4474 19.5115 76.5034V74.1834H18.1675V76.5994H18.1355L17.0795 73.9594ZM17.5435 78.4874C17.2235 78.8554 16.9835 78.9674 16.5995 78.9674C15.9275 78.9674 15.7355 78.3594 15.7355 77.0474C15.7355 75.8154 15.7995 75.2714 16.0235 74.9514L17.5435 78.4874ZM26.4999 78.1354C26.4999 79.7194 27.2839 80.1194 28.6119 80.1194C30.1959 80.1194 30.8679 79.3034 30.8679 77.8954V68.4714H29.2679V77.7194C29.2679 78.3114 29.2039 78.8714 28.6119 78.8714C28.0679 78.8714 28.0039 78.2474 28.0039 77.7834V76.6474H26.4999V78.1354ZM35.1627 71.2874C35.1627 70.1514 35.5467 69.6234 36.2667 69.6234C37.0027 69.6234 37.3867 70.1514 37.3867 71.2874V77.3514C37.3867 78.3434 36.9387 78.8714 36.2667 78.8714C35.6107 78.8714 35.1627 78.3434 35.1627 77.3514V71.2874ZM33.5627 77.2554C33.5627 79.0474 34.2187 80.1194 36.2667 80.1194C38.4587 80.1194 38.9867 78.6954 38.9867 77.0794V71.2394C38.9867 69.4474 38.3307 68.3754 36.2667 68.3754C34.0907 68.3754 33.5627 69.7994 33.5627 71.4154V77.2554ZM41.0291 80.0234H42.6291L43.1571 77.0794H45.6531L46.1811 80.0234H47.7811L45.4291 68.4714H43.5731L41.0291 80.0234ZM44.4051 70.1674H44.4371L45.4291 75.7354H43.3971L44.4051 70.1674ZM42.9971 67.4154C43.0291 67.1274 43.2531 66.7274 43.5091 66.7274C43.9091 66.7274 44.5811 67.3194 45.3171 67.3194C46.4211 67.3194 46.8051 66.2794 46.8371 65.5754H45.9731C45.9411 65.8634 45.7171 66.2634 45.4611 66.2634C45.0611 66.2634 44.3891 65.6714 43.6531 65.6714C43.1091 65.6714 42.7251 65.9274 42.4851 66.2794C42.2611 66.6314 42.1491 67.0634 42.1331 67.4154H42.9971ZM51.6284 71.2874C51.6284 70.1514 52.0124 69.6234 52.7324 69.6234C53.4684 69.6234 53.8524 70.1514 53.8524 71.2874V77.3514C53.8524 78.3434 53.4044 78.8714 52.7324 78.8714C52.0764 78.8714 51.6284 78.3434 51.6284 77.3514V71.2874ZM50.0284 77.2554C50.0284 79.0474 50.6844 80.1194 52.7324 80.1194C54.9244 80.1194 55.4524 78.6954 55.4524 77.0794V71.2394C55.4524 69.4474 54.7964 68.3754 52.7324 68.3754C50.5564 68.3754 50.0284 69.7994 50.0284 71.4154V77.2554Z" fill="currentColor"/>
<g clip-path="url(#clip0_320_298)">
<path d="M123.118 55.447C123.136 55.0117 123.274 54.5897 123.518 54.2281C123.762 53.8664 124.102 53.5792 124.501 53.3984C124.453 53.582 124.418 53.709 124.398 53.762C124.061 54.6393 123.681 55.499 123.257 56.3377C123.153 56.0525 123.106 55.75 123.118 55.447V55.447Z" fill="white"/>
<path d="M88.9792 56.9255C87.9498 53.7983 87.823 50.7033 88.613 47.9754C88.8569 47.1334 89.1715 46.287 89.4765 45.4693C89.7998 44.5994 90.1345 43.7009 90.3967 42.7788C90.8835 41.0748 91.143 39.3144 91.1683 37.5431C91.1678 37.3439 91.191 37.1453 91.2374 36.9516C91.3016 36.6824 91.3364 36.407 91.3414 36.1304C91.3427 36.0952 91.3409 36.06 91.3361 36.0251C91.5266 34.9108 91.697 33.7896 91.9741 32.6918C92.626 30.1083 93.0848 27.7788 94.8369 25.6763C96.0604 24.2141 97.477 22.9188 98.5947 21.3774C99.8811 23.6087 102.198 25.1179 104.493 26.1756C106.297 27.009 108.056 27.9354 109.837 28.8166C110.327 29.0547 110.83 29.2678 111.342 29.455C112.596 29.9239 113.881 30.3092 115.055 30.9712C117.1 32.1238 118.584 34.0749 119.645 36.1617C119.422 35.7268 119.733 34.6342 119.624 34.0975C119.457 33.2869 119.114 32.5223 118.62 31.8567C120.527 33.5656 122.013 35.6875 122.965 38.0589C123.251 37.1838 123.275 36.2983 123.382 35.3962C124.828 36.614 125.444 38.5904 125.418 40.4736C125.392 42.3569 124.806 44.1836 124.195 45.9677C123.799 47.1307 123.387 48.346 123.56 49.562L124.025 49.736C124.24 49.823 125.176 47.9763 125.267 47.8223C125.345 47.682 125.441 47.553 125.554 47.4387C125.563 47.4195 125.572 47.4004 125.582 47.3804L125.646 47.3639C125.733 47.3003 125.838 47.2667 125.946 47.2682C125.941 47.2789 125.937 47.2903 125.935 47.3021C126.701 47.174 127.488 47.3112 128.166 47.6909C128.843 48.0706 129.369 48.6698 129.656 49.3886C129.943 50.1075 129.974 50.9025 129.743 51.6413C129.513 52.3801 129.035 53.018 128.389 53.4486C128.301 53.4065 128.205 53.3845 128.107 53.3842C128.009 53.384 127.912 53.4054 127.823 53.4471C127.735 53.4888 127.657 53.5496 127.595 53.6251C127.533 53.7006 127.489 53.7889 127.466 53.8835C126.969 54.0311 126.445 54.0633 125.934 53.9777C125.423 53.892 124.938 53.6908 124.517 53.3894C124.849 53.2415 125.211 53.1721 125.574 53.1868C125.739 53.1799 125.895 53.1113 126.012 52.9947C126.129 52.8782 126.197 52.7221 126.204 52.5576C126.21 52.3932 126.154 52.2323 126.047 52.1071C125.939 51.9819 125.789 51.9015 125.624 51.882C124.921 51.8539 124.223 52.0276 123.616 52.3825C123.008 52.7373 122.516 53.2584 122.197 53.8836C121.878 54.5089 121.747 55.2122 121.818 55.9098C121.889 56.6074 122.16 57.27 122.598 57.8188C122.397 58.1668 121.816 59.0862 121.683 59.3359C120.295 60.966 118.699 62.6579 116.599 64.2419C114.851 65.5598 112.749 66.735 110.349 67.7336C107.297 69.0027 101.574 70.7999 97.5242 68.573C96.049 67.7553 94.6858 66.5462 93.4789 64.9804C91.3064 62.1595 89.8348 59.5246 88.9792 56.9255ZM119.026 38.3625C119.066 38.3386 119.099 38.3069 119.125 38.2693C119.151 38.2317 119.169 38.1891 119.178 38.1442C119.187 38.0993 119.186 38.0532 119.175 38.0087C119.165 37.9642 119.145 37.9223 119.118 37.8858C119.09 37.8493 119.055 37.8189 119.015 37.7966C118.975 37.7743 118.931 37.7606 118.885 37.7563C118.839 37.7521 118.793 37.7574 118.75 37.7719C118.706 37.7864 118.666 37.8098 118.632 37.8406C118.071 38.2491 117.37 38.421 116.682 38.319C116.687 38.1474 116.667 37.976 116.623 37.8101C116.504 37.3665 116.265 36.8533 115.764 36.755C115.313 36.668 114.848 36.922 114.489 37.1647C113.492 37.8371 112.678 38.8383 112.011 39.8247C111.826 40.1034 111.663 40.396 111.523 40.6998C111.341 41.0852 111.18 41.4827 111.009 41.8759L111.65 43.4373L110.089 44.0714C109.995 44.3557 109.916 44.6446 109.851 44.9369C109.616 46.0295 109.502 47.3352 110.315 48.1041C110.346 48.1328 110.378 48.1607 110.412 48.1868C110.602 48.0828 110.8 47.9932 111.004 47.9188C111.116 47.9985 111.25 48.0417 111.388 48.0424C111.449 48.0425 111.509 48.034 111.568 48.0171C112.36 47.7939 113.187 47.7176 114.007 47.7919C114.181 47.8075 114.354 47.7538 114.488 47.6426C114.622 47.5313 114.706 47.3716 114.722 47.1986C114.737 47.0256 114.683 46.8534 114.572 46.72C114.46 46.5865 114.299 46.5027 114.126 46.4871C113.675 46.4463 113.221 46.4434 112.769 46.4783C113.01 45.7677 113.175 45.0283 113.413 44.315C113.807 43.1394 114.402 42.0403 115.172 41.066C115.42 40.752 115.687 40.4493 115.928 40.1301C116.076 40.3368 116.271 40.5054 116.497 40.6217C116.723 40.7379 116.974 40.7984 117.229 40.7981C117.314 40.7981 117.4 40.7911 117.484 40.7772C117.527 40.7712 117.569 40.7566 117.607 40.7343C117.644 40.712 117.677 40.6825 117.703 40.6474C117.729 40.6123 117.748 40.5724 117.758 40.53C117.768 40.4877 117.77 40.4437 117.763 40.4007C117.756 40.3576 117.74 40.3165 117.717 40.2795C117.694 40.2426 117.663 40.2107 117.627 40.1856C117.592 40.1606 117.551 40.1429 117.508 40.1337C117.466 40.1244 117.421 40.1238 117.378 40.1318C117.159 40.1678 116.934 40.1248 116.743 40.0105C116.553 39.8962 116.41 39.7181 116.339 39.5081C116.434 39.3351 116.511 39.1533 116.571 38.9653C116.738 38.9926 116.908 39.0066 117.078 39.0071C117.78 39.006 118.463 38.78 119.026 38.3625V38.3625ZM112.157 58.9784C112.583 58.4608 112.956 57.5987 112.307 56.4296C111.945 55.7772 111.364 55.2118 110.844 54.7447C110.572 54.5003 110.232 54.2384 109.795 54.1454C109.128 54.0044 108.532 54.3089 108.135 54.5116C107.827 54.669 107.535 54.8265 107.252 54.9796C106.183 55.5589 105.259 56.0582 104.043 56.2417C102.529 56.4705 101.061 56.3722 99.7981 55.9582C98.5353 55.5441 97.8003 55.0178 96.6398 54.0001C96.3925 53.7835 95.8795 53.332 95.2127 53.4399C94.663 53.5269 94.3301 53.9462 94.1273 54.2515C93.8822 54.6218 93.6771 55.0169 93.5156 55.4302C93.3976 55.6813 93.3384 55.9559 93.3425 56.2331C93.3466 56.5104 93.4138 56.7831 93.5392 57.0307C94.1072 58.3486 95.1122 59.0401 96.091 59.7082L96.3977 59.9195C97.5661 60.7311 99.0788 61.3748 100.772 61.7819C101.963 62.0778 103.185 62.2317 104.412 62.2404C105.499 62.247 106.581 62.0979 107.625 61.7976C109.394 61.2818 111.172 60.1753 112.157 58.9784ZM102.399 48.3407C102.421 48.2577 102.427 48.1711 102.416 48.0858C102.405 48.0006 102.377 47.9183 102.334 47.8437C102.291 47.7691 102.234 47.7037 102.166 47.6513C102.097 47.5988 102.019 47.5602 101.936 47.5378C100.613 47.1821 99.9833 46.7463 99.8924 46.1261C99.8697 45.9651 99.9003 45.8059 99.9685 45.7398C100.037 45.6737 100.192 45.6398 100.374 45.5998C100.656 45.552 100.928 45.4532 101.174 45.3084C101.672 44.9909 102.015 44.4663 102.29 44.0445L102.382 43.9061C102.433 43.8345 102.468 43.7535 102.486 43.6679C102.505 43.5824 102.506 43.4941 102.489 43.4081C102.473 43.3222 102.439 43.2404 102.391 43.1676C102.342 43.0948 102.279 43.0324 102.206 42.9842C102.132 42.9359 102.05 42.9028 101.964 42.8868C101.877 42.8707 101.789 42.872 101.703 42.8907C101.617 42.9093 101.536 42.9449 101.464 42.9953C101.392 43.0457 101.331 43.1099 101.285 43.1842C101.253 43.2311 101.221 43.2798 101.188 43.3303C100.971 43.6635 100.724 44.0401 100.464 44.2063C100.345 44.2629 100.219 44.3019 100.089 44.3219C99.792 44.3872 99.3847 44.4768 99.05 44.803C98.6777 45.1648 98.5056 45.7294 98.5912 46.3139C98.8464 48.0624 100.842 48.6 101.592 48.8018C101.761 48.847 101.94 48.8239 102.091 48.7374C102.243 48.651 102.353 48.5083 102.399 48.3407V48.3407ZM100.029 34.2489C100.135 33.7905 100.064 33.3877 99.6277 33.1737C99.0159 32.8745 98.295 33.2346 97.7619 33.6539C97.6867 33.7139 97.6124 33.7748 97.539 33.8374C97.3635 33.692 97.217 33.5149 97.1073 33.3155C96.9011 32.9406 96.7866 32.4622 96.7578 31.8533C96.7537 31.7665 96.7152 31.6849 96.6507 31.6264C96.5862 31.568 96.501 31.5374 96.4139 31.5414C96.3268 31.5454 96.2448 31.5838 96.186 31.648C96.1273 31.7122 96.0965 31.797 96.1006 31.8837C96.1338 32.5944 96.2754 33.1659 96.5306 33.6304C96.6661 33.8782 96.8435 34.1009 97.0549 34.2889C96.8906 34.4553 96.7342 34.6293 96.5856 34.8108C96.3664 34.7846 96.1601 34.6937 95.9931 34.5499C95.7877 34.3759 95.6086 34.1297 95.4277 33.7722C95.4083 33.7338 95.3814 33.6996 95.3487 33.6716C95.3159 33.6435 95.278 33.6222 95.237 33.6087C95.1959 33.5953 95.1527 33.59 95.1096 33.5932C95.0665 33.5964 95.0245 33.608 94.9859 33.6274C94.9474 33.6467 94.913 33.6735 94.8849 33.706C94.8567 33.7386 94.8352 33.7764 94.8217 33.8172C94.8082 33.8581 94.8029 33.9011 94.8061 33.944C94.8093 33.9869 94.821 34.0287 94.8404 34.0671C95.0624 34.502 95.2931 34.8178 95.5675 35.0492C95.751 35.2046 95.9633 35.3228 96.1924 35.3971C96.0744 35.6015 95.966 35.8085 95.8376 36.0182C95.5028 36.5707 95.2208 37.1531 94.9951 37.7579L95.7458 39.168L94.3406 39.9091C94.2881 40.1225 94.2377 40.3351 94.1894 40.5467C94.0455 41.1782 93.9658 41.8226 93.9517 42.47C93.9447 42.838 93.9613 43.2216 94.1335 43.5478C94.2314 43.7394 94.3749 43.9043 94.5516 44.028C94.7283 44.1517 94.9327 44.2304 95.147 44.2574C95.3613 44.2843 95.579 44.2586 95.781 44.1825C95.983 44.1065 96.1633 43.9823 96.306 43.8209C96.9806 43.0545 97.0601 41.8106 97.2358 40.8564C97.5256 39.2927 98.0875 37.7914 98.8962 36.4201C99.1505 35.9834 99.8488 35.0352 100.029 34.2506V34.2489Z" fill="white"/>
<path d="M124.501 53.3983C123.96 53.6426 123.531 54.0808 123.301 54.6257C123.07 55.1705 123.055 55.7818 123.257 56.3376C123.681 55.498 124.061 54.6375 124.397 53.7593C124.418 53.7089 124.451 53.5854 124.501 53.3983ZM87.7287 57.3336C86.6171 53.9551 86.486 50.5939 87.3485 47.6137C87.6107 46.7238 87.9297 45.8548 88.2425 45.0146C88.5554 44.1743 88.8831 43.2948 89.1304 42.4224C89.4916 41.1741 89.7175 39.891 89.8042 38.5949C89.7238 37.6216 89.8339 36.5438 89.9283 35.8157C90.1502 34.1073 90.2429 32.398 90.4692 30.6904C90.6868 29.0542 91.302 27.4128 91.7407 25.8192C92.5272 22.9547 94.1055 19.8562 96.0709 17.6024C97.1073 16.4133 98.343 15.3677 99.7413 14.6257C100.93 13.9959 102.881 13.1513 104.141 14.1038C104.279 13.5941 105.686 12.9834 106.215 12.8729C107.081 12.692 108.146 12.7077 109.036 12.7225C113.004 12.786 117.028 13.1043 120.758 14.4544C126.204 16.4333 130.759 20.6765 133.19 25.9036C133.464 22.868 134.272 19.9041 135.578 17.1475C136.591 15.0233 138.66 13.0843 141.728 11.3846C142.973 10.6961 144.27 10.1037 145.606 9.61267C146.218 8.52795 146.896 7.55978 147.616 6.89086C150.91 3.84632 154.514 2.0196 158.633 1.30891C165.188 0.178086 172.691 -0.364711 178.687 4.24733C180.235 5.43818 180.912 7.33275 180.697 9.87711C180.555 11.6882 179.943 13.8385 178.895 16.268C178.836 16.4033 178.734 16.5149 178.604 16.5847C180.754 18.1191 182.924 19.6718 184.669 21.6516C186.414 23.6315 187.728 26.1167 187.815 28.755C187.89 30.9923 187.111 33.3514 188.014 35.4016C188.577 36.6804 189.707 37.6059 190.592 38.6897C192.42 40.9279 193.193 43.8837 193.213 46.7673C193.264 53.8681 190.031 60.4608 189.909 67.5633C189.877 69.4822 190.022 71.4838 190.978 73.1504C191.028 73.2374 187.428 73.7472 187.086 73.7454C185.792 73.7367 184.791 73.3836 183.578 73.0878C180.996 72.4615 178.283 72.6059 175.836 73.6793C173.094 74.8797 170.243 75.7818 167.239 76.0697C163.424 76.4431 159.651 77.1608 155.966 78.2139C152.527 79.1891 149.895 78.3105 146.452 78.514C145.367 78.5784 144.221 79.0777 143.764 80.0598C143.692 80.2129 143.629 80.3869 143.482 80.4712C143.334 80.5556 143.168 80.5269 143.01 80.4947C131.396 78.1626 137.949 61.4142 135.617 53.7741C135.072 51.9909 134.14 50.3512 133.469 48.6106C133.29 48.1467 133.131 47.6784 132.992 47.2058C131.946 49.6273 130.506 51.8609 128.731 53.8167C129.03 54.3749 129.179 55.0006 129.163 55.633C129.147 56.2654 128.967 56.8829 128.64 57.4254C128.313 57.9678 127.851 58.4168 127.298 58.7287C126.745 59.0405 126.12 59.2045 125.485 59.2047C125.436 59.2047 125.388 59.2047 125.339 59.2047C125.032 59.1931 124.727 59.1429 124.433 59.0551C124.446 59.0386 124.457 59.0229 124.468 59.009C124.226 58.9269 123.992 58.8223 123.769 58.6967C123.734 58.6767 123.699 58.6567 123.665 58.6358L123.627 58.6115C123.594 58.5923 123.563 58.5715 123.532 58.5514L123.493 58.5253C123.461 58.5036 123.43 58.4819 123.399 58.4592L123.364 58.4349L123.258 58.3531L123.241 58.3401C123.201 58.3079 123.161 58.274 123.121 58.24L123.098 58.22L123.011 58.133C122.997 58.1217 122.985 58.1087 122.972 58.0965C122.959 58.0843 122.924 58.0504 122.9 58.026L122.859 57.9843L122.793 57.9138C122.741 57.8582 122.692 57.8016 122.644 57.7399C122.633 57.7599 122.619 57.7842 122.603 57.8129C122.165 57.2641 121.894 56.6015 121.823 55.9039C121.752 55.2063 121.884 54.503 122.202 53.8777C122.521 53.2525 123.014 52.7314 123.621 52.3766C124.229 52.0217 124.926 51.848 125.63 51.8761C125.794 51.8956 125.945 51.976 126.052 52.1012C126.159 52.2264 126.215 52.3873 126.209 52.5518C126.203 52.7162 126.134 52.8723 126.017 52.9889C125.901 53.1054 125.744 53.174 125.579 53.1809C125.216 53.1663 124.854 53.2356 124.522 53.3836C124.943 53.6849 125.428 53.8861 125.939 53.9718C126.45 54.0574 126.974 54.0252 127.471 53.8776C127.494 53.783 127.538 53.6947 127.6 53.6192C127.662 53.5437 127.74 53.4829 127.829 53.4412C127.917 53.3996 128.014 53.3781 128.112 53.3783C128.21 53.3786 128.306 53.4006 128.395 53.4427C129.036 53.01 129.509 52.3723 129.736 51.6354C129.963 50.8985 129.93 50.1064 129.644 49.3904C129.357 48.6744 128.833 48.0773 128.159 47.6981C127.485 47.3188 126.701 47.1801 125.936 47.3049C125.938 47.2931 125.942 47.2817 125.948 47.271C125.84 47.2695 125.735 47.3031 125.648 47.3667L125.583 47.3832C125.574 47.4032 125.565 47.4224 125.555 47.4415C125.443 47.5558 125.346 47.6848 125.269 47.8251C125.181 47.9799 124.242 49.8258 124.027 49.7388L123.562 49.5648C123.387 48.347 123.801 47.1292 124.196 45.9705C124.808 44.1864 125.392 42.3597 125.42 40.4765C125.448 38.5932 124.83 36.6134 123.384 35.399C123.277 36.3011 123.253 37.1866 122.967 38.0617C122.015 35.6903 120.528 33.5684 118.622 31.8595C119.116 32.5252 119.458 33.2898 119.625 34.1003C119.731 34.637 119.423 35.727 119.646 36.1645C118.585 34.0768 117.1 32.1266 115.055 30.974C113.882 30.312 112.597 29.9302 111.343 29.4578C110.83 29.2707 110.327 29.0576 109.836 28.8194C108.055 27.9382 106.296 27.0118 104.492 26.1784C102.197 25.1181 99.8802 23.6115 98.5938 21.3802C97.477 22.9217 96.0595 24.2169 94.8361 25.6791C93.0883 27.7816 92.6251 30.1111 91.9732 32.6946C91.6962 33.7924 91.5258 34.9137 91.3352 36.028C91.34 36.0628 91.3418 36.098 91.3405 36.1332C91.3356 36.4098 91.3007 36.6852 91.2365 36.9544C91.1901 37.1481 91.1669 37.3467 91.1675 37.5459C91.1421 39.3173 90.8827 41.0776 90.3958 42.7816C90.1336 43.7037 89.7989 44.6022 89.4756 45.4721C89.1706 46.2898 88.856 47.1362 88.6122 47.9782C87.8257 50.7061 87.9489 53.8011 88.9783 56.9283C89.8339 59.5274 91.3055 62.1623 93.478 64.985C94.6858 66.5464 96.0491 67.7555 97.5259 68.5697C101.576 70.7966 107.299 68.9994 110.35 67.7303C112.751 66.7317 114.854 65.5556 116.601 64.2386C118.698 62.6546 120.297 60.9627 121.685 59.3326C121.818 59.0829 122.399 58.1652 122.6 57.8155C123.07 58.405 123.71 58.8363 124.435 59.0507C124.109 59.4787 123.323 60.5678 123.07 60.954C122.924 61.1776 122.322 63.1182 122.733 63.2113C122.426 63.1366 122.144 62.9874 121.91 62.7769C121.676 62.5665 121.498 62.3015 121.392 62.0057C121.376 61.9552 121.353 61.85 121.327 61.7169C120.125 63.0182 118.81 64.2116 117.398 65.2833C115.563 66.6682 113.364 67.8982 110.862 68.9368C108.746 69.8162 105.422 70.9253 102.11 70.9262C100.301 70.9262 98.4951 70.5948 96.8932 69.7136C95.2547 68.8124 93.7559 67.4876 92.4364 65.7766C90.1703 62.8373 88.6314 60.0746 87.7287 57.3336ZM182.339 54.8902C184.758 51.716 185.223 46.1976 184.585 42.3441C184.007 38.8446 182.197 35.6322 181.667 32.1249C181.271 29.5005 181.068 26.6969 180.461 24.0507C179.896 21.5899 179.218 18.942 178.095 16.6386C177.58 16.5116 170.673 14.8884 161.832 16.5194C155.54 17.6816 148.647 21.7169 144.928 24.1473C148.074 30.0146 146.634 37.3928 148.665 43.7793C149.271 45.6861 150.184 47.4859 150.78 49.3952C151.581 51.9631 151.639 54.042 150.543 56.4986C150.084 57.5467 149.858 58.6808 149.879 59.8238C149.9 60.9669 150.168 62.092 150.665 63.1226C150.125 61.0912 150.259 58.9403 151.047 56.9909C151.141 56.7607 151.251 56.537 151.375 56.3211C151.489 56.1395 151.592 55.951 151.683 55.7566L151.7 55.7409C154.548 58.4375 156.811 60.0033 160.39 61.0993C164.578 62.385 168.452 62.1953 172.667 61.2002C176.496 60.2947 179.963 58.0034 182.339 54.8902ZM177.9 15.2512C180.468 9.01594 179.332 6.38894 177.891 5.28334C175.375 3.34876 172.414 2.25185 168.836 1.93087C168.084 1.86389 167.309 1.8291 166.5 1.8291C164.315 1.8291 161.868 2.07962 158.867 2.59893C155.006 3.26786 151.62 4.98585 148.519 7.85119C147.987 8.34267 147.426 9.10206 146.858 10.0763C146.863 10.1953 146.834 10.3132 146.776 10.4172C146.718 10.5213 146.633 10.6077 146.529 10.667C145.63 12.3449 144.734 14.5396 143.945 17.0466C142.965 20.159 142.438 22.8234 142.353 24.2995C143.462 23.5227 145.441 22.1901 147.883 20.7818C151.404 18.7541 156.636 16.1445 161.591 15.2303C165.547 14.5074 169.581 14.3085 173.588 14.6388C175.037 14.7545 176.477 14.9584 177.9 15.2494V15.2512ZM142.692 16.6551C143.252 14.8598 143.923 13.1008 144.702 11.3881C142.366 12.4023 138.275 14.5535 136.773 17.7094C135.233 20.9682 134.424 24.5215 134.403 28.1226C134.403 28.5184 134.408 28.8942 134.422 29.2482C134.568 29.7771 134.695 30.3106 134.806 30.8488C136.128 29.109 138.444 26.4377 141.05 25.1076C140.997 24.4074 141.088 23.3992 141.321 22.0953C141.666 20.2557 142.123 18.4389 142.692 16.6551V16.6551ZM140.972 47.4606C140.964 46.9387 140.932 46.4168 140.874 45.9036C140.719 44.4259 140.309 42.9859 139.664 41.6464C139.097 41.4888 138.5 41.4801 137.929 41.6212C137.359 41.7622 136.835 42.0481 136.408 42.451C135.982 42.8539 135.668 43.36 135.497 43.9199C135.326 44.4797 135.304 45.0742 135.432 45.6451C135.561 46.2161 135.836 46.7441 136.231 47.1775C136.626 47.6108 137.128 47.9348 137.686 48.1178C138.244 48.3007 138.841 48.3363 139.417 48.2211C139.994 48.1059 140.53 47.8439 140.974 47.4606H140.972ZM127.847 55.6313C127.857 55.3692 127.823 55.1072 127.746 54.8562C126.845 55.8054 126.012 56.8166 125.253 57.8825C125.298 57.8869 125.34 57.8903 125.39 57.8921C126.017 57.9159 126.628 57.6912 127.088 57.2673C127.549 56.8435 127.821 56.2551 127.847 55.6313V55.6313Z" fill="currentColor"/>
<path d="M184.585 42.3423C185.222 46.1958 184.76 51.7143 182.339 54.8884C179.963 58.0034 176.496 60.2946 172.667 61.1984C168.452 62.1936 164.578 62.3832 160.39 61.0975C156.807 59.9989 154.548 58.4357 151.7 55.7391L151.683 55.7548C151.592 55.9492 151.489 56.1378 151.375 56.3193C151.251 56.5352 151.141 56.759 151.047 56.9891C150.26 58.9388 150.126 61.0897 150.668 63.1208C150.171 62.0902 149.902 60.9651 149.881 59.8221C149.86 58.6791 150.087 57.5449 150.545 56.4968C151.641 54.0403 151.584 51.9613 150.782 49.3935C150.186 47.4841 149.274 45.6843 148.667 43.7776C146.636 37.391 148.073 30.0128 144.931 24.1455C148.65 21.7151 155.539 17.6798 161.834 16.5177C170.676 14.8867 177.583 16.5098 178.098 16.6368C179.221 18.9403 179.899 21.5881 180.463 24.049C181.071 26.6951 181.273 29.4987 181.67 32.1231C182.197 35.6304 184.007 38.8428 184.585 42.3423ZM180.565 44.169C180.433 43.8072 180.138 43.5297 179.837 43.2879C177.477 41.3968 174.063 40.9149 171.272 42.0814C170.486 42.411 169.748 42.859 168.952 43.1696C167.655 43.6767 166.22 43.8115 164.974 44.4343C163.856 44.9937 162.964 45.9131 162.152 46.8613C161.668 47.4284 161.201 48.0217 160.899 48.7028C160.748 49.0446 160.163 50.5904 160.644 50.9479C160.674 50.9703 160.707 50.9876 160.743 50.9992C160.867 51.041 161.005 50.9923 161.121 50.9383C161.445 50.7921 161.749 50.6062 162.026 50.3851C162.155 50.2829 162.293 50.1915 162.437 50.112C162.152 51.2106 162.356 52.1327 163.076 53.0608C164.217 54.5292 166.236 54.7136 167.655 54.7188H167.808C170.538 54.7188 172.806 54.2882 174.74 53.4027C177.173 52.2884 179.033 50.3929 179.842 48.2009C180.129 47.418 180.234 46.7317 180.163 46.0906C180.085 45.4758 179.836 44.8949 179.443 44.4143C179.825 44.3751 180.201 44.2931 180.565 44.1699L180.565 44.169ZM177.203 34.2778C177.37 33.9611 177.386 33.5888 177.378 33.2339C177.364 32.6026 177.287 31.9743 177.147 31.3585C177.1 31.1532 177.051 30.947 177 30.74L175.637 30.0206L176.365 28.6523C176.146 28.0654 175.872 27.5001 175.548 26.9639C175.302 26.5655 175.132 26.1715 174.823 25.7983C174.483 25.3867 174.1 25.0122 173.68 24.6814C173.164 24.2743 172.462 23.9246 171.871 24.2151C171.447 24.423 171.379 24.8136 171.481 25.259C171.656 26.021 172.333 26.9404 172.584 27.3675C173.367 28.6962 173.91 30.1503 174.191 31.6647C174.366 32.5902 174.439 33.7967 175.093 34.5405C175.231 34.6972 175.406 34.8178 175.602 34.8918C175.798 34.9659 176.009 34.9911 176.217 34.9653C176.425 34.9394 176.624 34.8634 176.795 34.7437C176.967 34.624 177.106 34.4644 177.202 34.2786L177.203 34.2778ZM175.735 21.1689C175.781 21.0963 175.813 21.0154 175.828 20.9307C175.843 20.8459 175.841 20.7591 175.822 20.6751C175.804 20.5911 175.769 20.5115 175.719 20.441C175.669 20.3705 175.606 20.3104 175.534 20.2642C174.355 19.5152 173.047 19.2073 171.853 19.3943C170.42 19.6214 169.231 20.5834 168.817 21.8447C168.79 21.9265 168.78 22.0128 168.786 22.0986C168.793 22.1844 168.816 22.268 168.855 22.3448C168.895 22.4215 168.949 22.4898 169.014 22.5458C169.08 22.6018 169.156 22.6444 169.238 22.6711C169.32 22.6979 169.407 22.7082 169.493 22.7016C169.579 22.695 169.663 22.6716 169.74 22.6326C169.817 22.5937 169.886 22.54 169.942 22.4747C169.999 22.4094 170.041 22.3336 170.068 22.2518C170.325 21.469 171.126 20.8392 172.061 20.6904C172.935 20.5521 173.919 20.7931 174.827 21.3689C174.974 21.4619 175.152 21.4931 175.322 21.4558C175.492 21.4184 175.64 21.3156 175.734 21.1697L175.735 21.1689ZM172.18 39.7597C172.952 38.5793 172.658 37.1014 172.125 36.1123C171.688 35.3068 171.076 34.6562 170.487 34.0246C170.344 33.8724 170.195 33.715 170.054 33.5601C169.76 33.2357 169.716 33.1322 169.6 32.8573C169.54 32.7155 169.465 32.5406 169.346 32.3032C169.265 32.1532 169.129 32.0407 168.965 31.9893C168.802 31.938 168.625 31.952 168.472 32.0282C168.319 32.1045 168.202 32.237 168.146 32.3978C168.089 32.5586 168.098 32.7349 168.17 32.8895C168.27 33.0887 168.333 33.2374 168.387 33.3653C168.542 33.7658 168.778 34.1307 169.079 34.4378C169.227 34.6014 169.379 34.7632 169.526 34.9197C170.085 35.5139 170.612 36.0749 170.966 36.7299C171.508 37.7355 171.364 38.6054 171.078 39.0438C170.893 39.3084 170.629 39.5076 170.323 39.6123C170.017 39.717 169.685 39.7217 169.376 39.6257C169.212 39.5738 169.034 39.5877 168.881 39.6646C168.727 39.7415 168.61 39.8752 168.554 40.0371C168.498 40.199 168.508 40.3762 168.582 40.5308C168.656 40.6855 168.787 40.8052 168.949 40.8644C169.226 40.9586 169.517 41.0062 169.81 41.0053C170.739 41.0071 171.667 40.5443 172.18 39.7597ZM161.499 38.6967C162.285 37.9512 162.178 36.6838 161.95 35.6235C161.888 35.3398 161.811 35.0596 161.719 34.784L160.205 34.169L160.827 32.6529C160.661 32.2745 160.505 31.8865 160.328 31.5116C160.192 31.2171 160.034 30.9333 159.855 30.6626C159.207 29.7057 158.417 28.735 157.449 28.0817C157.1 27.846 156.65 27.5989 156.213 27.685C155.726 27.7799 155.495 28.2774 155.379 28.708C155.222 29.2873 155.398 29.9128 155.699 30.4338C155.999 30.9549 156.414 31.3968 156.788 31.8691C157.535 32.814 158.112 33.8806 158.493 35.0215C158.817 35.9871 158.999 37.0039 159.438 37.9234C159.719 38.5105 160.246 39.1177 160.891 39.0177C161.122 38.9739 161.333 38.862 161.499 38.6967V38.6967ZM158.683 25.2277C158.727 25.1536 158.756 25.0717 158.768 24.9865C158.78 24.9014 158.775 24.8148 158.753 24.7315C158.731 24.6483 158.693 24.5702 158.641 24.5016C158.589 24.433 158.524 24.3752 158.45 24.3317C157.526 23.7898 156.593 23.574 155.751 23.7054C154.999 23.8228 154.266 24.2273 153.62 24.871C153.086 25.4077 152.691 26.0227 152.309 26.6177C152.259 26.6901 152.224 26.7718 152.206 26.8578C152.189 26.9439 152.189 27.0326 152.206 27.1187C152.224 27.2048 152.258 27.2865 152.308 27.359C152.358 27.4315 152.422 27.4932 152.497 27.5405C152.571 27.5879 152.654 27.6198 152.741 27.6345C152.828 27.6492 152.917 27.6463 153.003 27.626C153.089 27.6058 153.17 27.5685 153.241 27.5165C153.312 27.4644 153.372 27.3987 153.417 27.3232C153.762 26.7856 154.116 26.2297 154.553 25.7922C154.862 25.4825 155.356 25.0963 155.951 24.9989C156.631 24.8928 157.32 25.1911 157.779 25.4599C157.853 25.5041 157.936 25.5332 158.022 25.5454C158.108 25.5576 158.195 25.5528 158.279 25.5312C158.363 25.5097 158.442 25.4717 158.512 25.4196C158.581 25.3675 158.639 25.3023 158.683 25.2277V25.2277Z" fill="white"/>
<path d="M179.836 43.2888C180.137 43.5306 180.432 43.8107 180.565 44.17C180.201 44.2937 179.824 44.376 179.441 44.4153C179.834 44.8959 180.083 45.4767 180.16 46.0915C180.232 46.7326 180.127 47.4224 179.839 48.2018C179.03 50.3939 177.17 52.2902 174.738 53.4036C172.804 54.2892 170.535 54.7163 167.806 54.7163H167.652C166.234 54.7111 164.213 54.5301 163.077 53.0635C162.357 52.1354 162.153 51.2133 162.438 50.1147C162.294 50.1942 162.156 50.2856 162.027 50.3878C161.749 50.6089 161.446 50.7948 161.122 50.941C161.002 50.995 160.868 51.0437 160.744 51.0019C160.708 50.9903 160.675 50.973 160.645 50.9506C160.164 50.5931 160.749 49.0474 160.9 48.7055C161.202 48.0244 161.669 47.4311 162.153 46.864C162.963 45.9141 163.857 44.9964 164.975 44.437C166.221 43.8142 167.655 43.6794 168.953 43.1723C169.749 42.8617 170.485 42.4137 171.273 42.0841C174.062 40.9158 177.479 41.3977 179.836 43.2888ZM178.605 47.7504C178.82 47.1658 178.902 46.6717 178.853 46.2385C178.775 45.5557 178.241 44.8824 177.556 44.5554C175.326 44.8894 173.504 46.3499 171.475 47.2563C170.296 47.7843 169.082 47.8295 167.863 48.2331C166.709 48.6159 165.535 48.9473 164.383 49.3361C164.121 49.5971 163.9 49.8494 163.792 50.1634C163.499 51.0124 163.587 51.5813 164.114 52.2606C164.409 52.6244 164.799 52.8992 165.242 53.054C165.289 52.478 165.461 51.9192 165.747 51.416C166.134 50.6957 166.68 50.0713 167.343 49.5893C168.513 48.7699 170.108 48.575 171.388 49.0761C172.294 48.275 173.46 47.8267 174.671 47.8137C175.883 47.8008 177.059 48.2241 177.981 49.0056C178.232 48.6099 178.441 48.1892 178.605 47.7504ZM174.188 52.2137C175.324 51.7023 176.344 50.9662 177.185 50.0503C176.762 49.6797 176.261 49.4092 175.718 49.2591C175.175 49.109 174.605 49.0832 174.051 49.1837C173.496 49.2841 172.972 49.5082 172.517 49.839C172.062 50.1699 171.688 50.599 171.424 51.0941C171.368 51.1992 171.284 51.2871 171.182 51.3484C171.079 51.4097 170.962 51.4421 170.843 51.4421C170.735 51.4423 170.629 51.416 170.534 51.3655C170.38 51.2839 170.265 51.1448 170.214 50.9788C170.163 50.8127 170.18 50.6333 170.262 50.48C170.319 50.3739 170.38 50.2704 170.445 50.1695C169.628 50.0259 168.788 50.2027 168.099 50.6627C167.266 51.2464 166.495 52.459 166.557 53.3541C166.923 53.3932 167.291 53.4132 167.66 53.4141C170.261 53.4263 172.396 53.034 174.188 52.2137V52.2137Z" fill="currentColor"/>
<path d="M178.853 46.2383C178.902 46.6732 178.82 47.1655 178.604 47.7501C178.441 48.1886 178.232 48.609 177.981 49.0044C177.058 48.2229 175.883 47.7996 174.671 47.8126C173.46 47.8255 172.294 48.2738 171.388 49.0749C170.108 48.5739 168.513 48.7687 167.343 49.5881C166.68 50.0702 166.134 50.6945 165.747 51.4148C165.461 51.918 165.289 52.4769 165.242 53.0528C164.799 52.8981 164.409 52.6233 164.114 52.2595C163.59 51.5801 163.503 51.0112 163.792 50.1622C163.9 49.8482 164.118 49.5977 164.383 49.335C165.534 48.9462 166.709 48.6147 167.863 48.232C169.086 47.8284 170.295 47.7831 171.475 47.2551C173.504 46.3487 175.326 44.8882 177.556 44.5542C178.241 44.8865 178.775 45.5554 178.853 46.2383Z" fill="white"/>
<path d="M177.891 5.28335C179.327 6.38895 180.468 9.01595 177.9 15.2494C176.477 14.959 175.037 14.7557 173.589 14.6405C169.581 14.3096 165.547 14.5079 161.592 15.2303C156.636 16.1445 151.403 18.7541 147.884 20.7818C145.442 22.1901 143.462 23.5227 142.354 24.2995C142.441 22.8207 142.965 20.159 143.946 17.0466C144.732 14.5396 145.631 12.3493 146.53 10.667C146.634 10.6077 146.719 10.5213 146.777 10.4172C146.835 10.3132 146.864 10.1953 146.859 10.0763C147.425 9.10207 147.986 8.34267 148.52 7.8512C151.62 4.98585 155.006 3.26786 158.867 2.59893C161.865 2.07701 164.313 1.8291 166.5 1.8291C167.309 1.8291 168.084 1.8639 168.836 1.93088C172.414 2.25186 175.376 3.34876 177.891 5.28335Z" fill="white"/>
<path d="M177.378 33.2304C177.385 33.588 177.369 33.9603 177.203 34.2743C177.107 34.4599 176.968 34.6195 176.796 34.7391C176.624 34.8587 176.426 34.9347 176.218 34.9604C176.01 34.9862 175.799 34.9609 175.603 34.8868C175.407 34.8126 175.232 34.692 175.094 34.5352C174.44 33.7915 174.363 32.585 174.192 31.6595C173.912 30.1432 173.368 28.6873 172.585 27.3571C172.334 26.93 171.657 26.0105 171.482 25.2485C171.38 24.804 171.448 24.4135 171.872 24.2047C172.463 23.9142 173.165 24.2638 173.681 24.6709C174.101 25.0018 174.484 25.3762 174.824 25.7879C175.133 26.161 175.303 26.5551 175.548 26.9535C175.873 27.4896 176.147 28.0549 176.366 28.6419L175.638 30.0102L177.001 30.7296C177.052 30.9366 177.101 31.1428 177.148 31.348C177.288 31.9662 177.365 32.5969 177.378 33.2304V33.2304Z" fill="currentColor"/>
<path d="M177.185 50.0503C176.344 50.9662 175.324 51.7023 174.188 52.2136C172.396 53.0339 170.261 53.4262 167.66 53.4106C167.291 53.4097 166.923 53.3897 166.557 53.3506C166.495 52.4555 167.266 51.2429 168.099 50.6592C168.788 50.1992 169.628 50.0224 170.445 50.166C170.38 50.2669 170.319 50.3704 170.262 50.4765C170.18 50.6298 170.163 50.8092 170.214 50.9753C170.265 51.1413 170.38 51.2804 170.534 51.362C170.629 51.4125 170.735 51.4388 170.843 51.4386C170.962 51.4386 171.079 51.4062 171.182 51.3449C171.284 51.2836 171.368 51.1957 171.424 51.0906C171.688 50.5955 172.062 50.1664 172.517 49.8355C172.972 49.5046 173.496 49.2806 174.051 49.1802C174.605 49.0797 175.175 49.1055 175.718 49.2556C176.261 49.4057 176.762 49.6762 177.185 50.0468V50.0503Z" fill="white"/>
<path d="M175.533 20.2696C175.606 20.3158 175.669 20.3758 175.718 20.4463C175.768 20.5167 175.803 20.5961 175.821 20.6801C175.84 20.764 175.842 20.8508 175.827 20.9354C175.812 21.02 175.78 21.1009 175.734 21.1734C175.687 21.2459 175.627 21.3085 175.556 21.3578C175.486 21.4071 175.406 21.442 175.321 21.4606C175.237 21.4792 175.15 21.4811 175.065 21.4661C174.98 21.4512 174.899 21.4197 174.826 21.3735C173.918 20.7976 172.936 20.5567 172.059 20.695C171.124 20.8437 170.323 21.4709 170.067 22.2564C170.013 22.4214 169.895 22.5585 169.74 22.6374C169.585 22.7162 169.404 22.7305 169.239 22.677C169.073 22.6234 168.935 22.5065 168.856 22.352C168.777 22.1974 168.762 22.0178 168.816 21.8528C169.227 20.5915 170.419 19.6294 171.852 19.4023C173.047 19.2084 174.35 19.5163 175.533 20.2696Z" fill="currentColor"/>
<path d="M172.125 36.1121C172.658 37.1012 172.952 38.5791 172.18 39.7595C171.667 40.5424 170.739 41.0069 169.811 41.0069C169.517 41.0078 169.226 40.9602 168.949 40.866C168.787 40.8068 168.656 40.687 168.582 40.5324C168.508 40.3778 168.498 40.2006 168.554 40.0387C168.61 39.8768 168.727 39.7431 168.881 39.6662C169.035 39.5893 169.212 39.5753 169.376 39.6273C169.685 39.7232 170.017 39.7185 170.323 39.6139C170.629 39.5092 170.893 39.31 171.078 39.0453C171.364 38.6104 171.508 37.7405 170.966 36.7315C170.616 36.0765 170.085 35.5137 169.526 34.9213C169.379 34.7647 169.227 34.6029 169.079 34.4394C168.778 34.1322 168.542 33.7673 168.387 33.3668C168.333 33.2372 168.27 33.0902 168.17 32.891C168.098 32.7365 168.09 32.5602 168.146 32.3994C168.202 32.2386 168.32 32.106 168.473 32.0298C168.626 31.9535 168.802 31.9396 168.965 31.9909C169.129 32.0422 169.265 32.1548 169.346 32.3047C169.465 32.5422 169.54 32.7171 169.6 32.8588C169.716 33.1337 169.76 33.2372 170.054 33.5617C170.195 33.7165 170.344 33.874 170.487 34.0262C171.079 34.656 171.69 35.3066 172.125 36.1121Z" fill="currentColor"/>
<path d="M161.95 35.6237C162.178 36.6841 162.29 37.9515 161.499 38.6969C161.332 38.863 161.119 38.975 160.887 39.0179C160.242 39.1179 159.714 38.5108 159.434 37.9236C158.997 37.0042 158.813 35.9873 158.489 35.0217C158.108 33.8809 157.532 32.8144 156.785 31.8693C156.412 31.397 155.999 30.9542 155.696 30.4341C155.394 29.9139 155.219 29.2876 155.376 28.7082C155.493 28.2777 155.726 27.7801 156.21 27.6853C156.647 27.5983 157.098 27.8462 157.447 28.0819C158.414 28.7352 159.204 29.706 159.852 30.6628C160.031 30.9335 160.189 31.2173 160.325 31.5118C160.5 31.8867 160.658 32.2747 160.824 32.6531L160.202 34.1693L161.716 34.7843C161.809 35.0598 161.887 35.34 161.95 35.6237V35.6237Z" fill="currentColor"/>
<path d="M158.45 24.3291C158.524 24.3727 158.59 24.4305 158.642 24.4993C158.694 24.568 158.732 24.6463 158.754 24.7296C158.775 24.813 158.78 24.8998 158.768 24.9851C158.757 25.0704 158.728 25.1525 158.684 25.2268C158.64 25.301 158.582 25.366 158.513 25.4179C158.444 25.4698 158.365 25.5076 158.282 25.5293C158.198 25.5509 158.111 25.5559 158.025 25.544C157.939 25.5321 157.857 25.5035 157.782 25.4599C157.323 25.1911 156.635 24.8927 155.955 24.9989C155.357 25.0928 154.863 25.4825 154.557 25.7922C154.12 26.2271 153.764 26.7856 153.42 27.3232C153.327 27.47 153.178 27.5738 153.008 27.6116C152.837 27.6494 152.658 27.6183 152.511 27.525C152.363 27.4316 152.259 27.2838 152.221 27.114C152.183 26.9442 152.214 26.7663 152.308 26.6194C152.691 26.0244 153.086 25.4094 153.619 24.8727C154.261 24.2282 154.998 23.8245 155.75 23.7071C156.593 23.5749 157.526 23.7871 158.45 24.3291Z" fill="currentColor"/>
<path d="M144.703 11.3882C143.925 13.1009 143.253 14.8599 142.693 16.6552C142.123 18.4391 141.663 20.2562 141.317 22.0963C141.084 23.4011 140.993 24.4084 141.045 25.1086C138.44 26.4421 136.123 29.11 134.801 30.8497C134.691 30.3122 134.563 29.7786 134.418 29.2492C134.404 28.8951 134.396 28.5194 134.398 28.1236C134.421 24.5219 135.232 20.9683 136.773 17.7095C138.275 14.5536 142.366 12.4024 144.703 11.3882Z" fill="white"/>
<path d="M140.874 45.9036C140.932 46.4212 140.961 46.9414 140.972 47.4607C140.528 47.8436 139.991 48.1052 139.415 48.2201C138.839 48.3351 138.243 48.2993 137.685 48.1163C137.127 47.9333 136.626 47.6094 136.231 47.1762C135.836 46.743 135.561 46.2153 135.432 45.6446C135.304 45.0739 135.326 44.4797 135.497 43.9202C135.668 43.3606 135.982 42.8547 136.408 42.4519C136.834 42.0491 137.357 41.7631 137.928 41.622C138.498 41.4808 139.095 41.4892 139.661 41.6465C140.308 42.9858 140.718 44.4258 140.874 45.9036V45.9036Z" fill="white"/>
<path d="M122.6 57.8157C122.616 57.787 122.63 57.7627 122.64 57.7427C122.688 57.8018 122.738 57.8584 122.789 57.9166L122.856 57.9871L122.897 58.0289C122.921 58.0532 122.945 58.0767 122.969 58.0993C122.992 58.1219 122.994 58.1245 123.007 58.1359L123.094 58.2228L123.117 58.2428C123.157 58.2768 123.198 58.3107 123.238 58.3429L123.254 58.3559L123.361 58.4377L123.396 58.4621C123.427 58.4847 123.458 58.5064 123.489 58.5282L123.529 58.5543C123.559 58.5743 123.591 58.5951 123.623 58.6143L123.662 58.6386C123.696 58.6595 123.731 58.6795 123.766 58.6995C123.988 58.8252 124.222 58.9297 124.465 59.0118C124.453 59.0257 124.442 59.0414 124.43 59.0579C123.706 58.8406 123.067 58.4069 122.6 57.8157V57.8157Z" fill="currentColor"/>
<path d="M119.093 37.9042C119.145 37.9739 119.167 38.0612 119.155 38.1471C119.142 38.2329 119.096 38.3104 119.026 38.3627C118.463 38.7786 117.779 39.0031 117.078 39.0029C116.908 39.0024 116.738 38.9884 116.571 38.9611C116.511 39.1491 116.434 39.3309 116.339 39.5039C116.41 39.7139 116.553 39.892 116.743 40.0063C116.934 40.1206 117.159 40.1636 117.378 40.1276C117.421 40.1196 117.466 40.1203 117.508 40.1295C117.551 40.1387 117.592 40.1564 117.627 40.1815C117.663 40.2065 117.694 40.2384 117.717 40.2754C117.74 40.3123 117.756 40.3535 117.763 40.3965C117.77 40.4395 117.768 40.4835 117.758 40.5259C117.748 40.5682 117.729 40.6081 117.703 40.6432C117.677 40.6783 117.644 40.7078 117.607 40.7301C117.569 40.7524 117.527 40.767 117.484 40.7731C117.4 40.7869 117.314 40.7939 117.229 40.7939C116.974 40.7946 116.724 40.7344 116.497 40.6187C116.271 40.5029 116.076 40.3348 115.928 40.1285C115.687 40.4477 115.42 40.7504 115.172 41.0645C114.402 42.0387 113.807 43.1378 113.413 44.3134C113.175 45.0267 113.01 45.7661 112.769 46.4768C113.221 46.4418 113.675 46.4448 114.126 46.4855C114.299 46.5012 114.46 46.5849 114.572 46.7184C114.683 46.8518 114.737 47.024 114.722 47.197C114.706 47.3701 114.622 47.5298 114.488 47.641C114.354 47.7523 114.181 47.806 114.007 47.7903C113.187 47.7168 112.36 47.7941 111.568 48.0182C111.509 48.035 111.449 48.0435 111.388 48.0434C111.25 48.0427 111.116 47.9996 111.004 47.9199C110.8 47.9943 110.602 48.0838 110.412 48.1878C110.378 48.1617 110.346 48.1339 110.315 48.1052C109.501 47.3362 109.616 46.0305 109.851 44.938C109.916 44.6456 109.995 44.3567 110.089 44.0725L111.65 43.4383L111.009 41.8769C111.18 41.4863 111.341 41.0862 111.523 40.7009C111.663 40.397 111.826 40.1044 112.011 39.8258C112.678 38.8393 113.496 37.8381 114.489 37.1657C114.848 36.923 115.313 36.6681 115.764 36.756C116.265 36.8543 116.504 37.3649 116.623 37.8112C116.667 37.977 116.687 38.1485 116.682 38.32C117.37 38.4221 118.071 38.2502 118.632 37.8416C118.667 37.8156 118.706 37.7966 118.748 37.7857C118.789 37.7747 118.833 37.7721 118.876 37.7779C118.918 37.7838 118.96 37.7979 118.997 37.8196C119.034 37.8412 119.067 37.87 119.093 37.9042V37.9042Z" fill="currentColor"/>
<path d="M112.304 56.4333C112.953 57.6024 112.58 58.4644 112.153 58.982C111.168 60.1754 109.391 61.2819 107.624 61.8012C106.58 62.1015 105.498 62.2506 104.411 62.244C103.184 62.2353 101.962 62.0814 100.771 61.7856C99.078 61.3785 97.5653 60.7347 96.4013 59.9232L96.0945 59.7118C95.1193 59.0437 94.1108 58.3522 93.5427 57.0343C93.4174 56.7867 93.3501 56.514 93.346 56.2368C93.3419 55.9595 93.4011 55.6849 93.5191 55.4338C93.6806 55.0205 93.8857 54.6254 94.1309 54.2551C94.3336 53.9498 94.6666 53.5331 95.2163 53.4435C95.883 53.3357 96.396 53.7915 96.6433 54.0037C97.8039 55.0215 98.5353 55.546 99.8016 55.9618C101.068 56.3776 102.533 56.4741 104.046 56.2454C105.263 56.0618 106.186 55.5625 107.256 54.9832C107.538 54.8301 107.831 54.6726 108.139 54.5152C108.533 54.3125 109.129 54.0081 109.799 54.149C110.236 54.2421 110.576 54.5039 110.848 54.7483C111.364 55.2154 111.945 55.7809 112.304 56.4333ZM111.136 58.1512C111.459 57.7607 111.573 57.1666 109.96 55.7156C109.817 55.5886 109.654 55.4547 109.518 55.4251C109.309 55.3816 108.964 55.5582 108.732 55.6747C108.437 55.8252 108.153 55.9801 107.876 56.1297C106.746 56.7386 105.679 57.3179 104.236 57.5354C102.519 57.7963 100.841 57.6798 99.3821 57.2013C97.7707 56.6725 96.8662 55.9479 95.7651 54.9814C95.5562 54.7979 95.4618 54.7474 95.4155 54.7353C95.3393 54.8043 95.276 54.8861 95.2285 54.9771C95.0344 55.2695 94.8723 55.5819 94.7452 55.9087C94.6979 56.01 94.6684 56.1185 94.6578 56.2297C94.6722 56.3301 94.7017 56.4277 94.7452 56.5194C95.1638 57.4893 95.9005 57.9981 96.8338 58.634C96.9378 58.7053 97.0427 58.7767 97.1484 58.8506C98.184 59.5691 99.5421 60.145 101.081 60.5138C103.374 61.0653 105.45 61.0757 107.252 60.546C108.786 60.0954 110.311 59.1525 111.14 58.1512H111.136Z" fill="currentColor"/>
<path d="M109.963 55.7202C111.574 57.1668 111.462 57.7609 111.14 58.1558C110.311 59.1527 108.786 60.0956 107.254 60.5445C105.452 61.0742 103.376 61.0664 101.083 60.5123C99.5473 60.1435 98.1892 59.5676 97.1502 58.8491C97.0444 58.7752 96.9395 58.7038 96.8356 58.6325C95.9022 57.9932 95.1655 57.4878 94.7469 56.5179C94.7034 56.4262 94.6739 56.3286 94.6595 56.2282C94.6701 56.117 94.6996 56.0085 94.7469 55.9072C94.8736 55.581 95.035 55.2693 95.2285 54.9773C95.2799 54.8873 95.3471 54.8072 95.4268 54.7407C95.4688 54.7529 95.5632 54.8033 95.7764 54.9869C96.8775 55.9533 97.7864 56.6779 99.3935 57.2068C100.852 57.6852 102.53 57.8009 104.247 57.5408C105.691 57.3234 106.758 56.7458 107.888 56.1351C108.164 55.9855 108.449 55.8307 108.743 55.6802C108.971 55.5636 109.317 55.387 109.53 55.4305C109.657 55.4584 109.821 55.5932 109.963 55.7202Z" fill="white"/>
<path d="M101.936 47.5381C102.096 47.5898 102.231 47.7012 102.312 47.8491C102.392 47.997 102.413 48.1701 102.368 48.3325C102.324 48.4949 102.219 48.6341 102.075 48.7214C101.93 48.8086 101.757 48.8372 101.592 48.8011C100.842 48.5993 98.8464 48.0617 98.5913 46.3133C98.5039 45.7288 98.6786 45.1642 99.05 44.8024C99.3848 44.4762 99.792 44.3866 100.089 44.3213C100.219 44.3012 100.345 44.2623 100.464 44.2056C100.726 44.0395 100.971 43.6628 101.188 43.3297C101.221 43.2792 101.253 43.2305 101.285 43.1835C101.331 43.1093 101.392 43.0451 101.464 42.9947C101.536 42.9443 101.617 42.9087 101.703 42.89C101.789 42.8714 101.877 42.8701 101.964 42.8861C102.05 42.9022 102.133 42.9353 102.206 42.9835C102.279 43.0318 102.342 43.0941 102.391 43.1669C102.439 43.2398 102.473 43.3215 102.489 43.4075C102.506 43.4934 102.505 43.5818 102.486 43.6673C102.468 43.7528 102.433 43.8338 102.382 43.9055L102.29 44.0438C102.015 44.4657 101.672 44.9902 101.174 45.3077C100.928 45.4526 100.656 45.5513 100.374 45.5992C100.192 45.6392 100.036 45.674 99.9685 45.7392C99.9012 45.8044 99.8698 45.9645 99.8925 46.1254C99.9816 46.7465 100.613 47.1823 101.936 47.5381Z" fill="currentColor"/>
<path d="M99.6321 33.1757C100.069 33.3897 100.139 33.7924 100.033 34.2509C99.8532 35.0337 99.1593 35.9836 98.8972 36.4255C98.0885 37.7968 97.5266 39.2981 97.2368 40.8619C97.062 41.8187 96.9816 43.06 96.3069 43.8264C96.1642 43.9878 95.984 44.1119 95.782 44.188C95.5799 44.2641 95.3623 44.2898 95.148 44.2628C94.9337 44.2359 94.7293 44.1571 94.5526 44.0334C94.3759 43.9097 94.2323 43.7449 94.1344 43.5532C93.9597 43.227 93.9457 42.8434 93.9527 42.4755C93.9658 41.8231 94.0455 41.1738 94.1904 40.5374C94.2387 40.3252 94.2891 40.1126 94.3415 39.8998L95.7468 39.1587L95.0005 37.7486C95.2261 37.1438 95.5082 36.5613 95.8429 36.0089C95.9714 35.7992 96.0797 35.5922 96.1977 35.3878C95.9686 35.3135 95.7563 35.1953 95.5729 35.0398C95.2985 34.8084 95.0678 34.4962 94.8458 34.0578C94.8065 33.9802 94.7998 33.8904 94.827 33.8079C94.8543 33.7254 94.9134 33.6571 94.9913 33.618C95.0692 33.5789 95.1595 33.5722 95.2423 33.5994C95.3251 33.6265 95.3938 33.6854 95.433 33.7629C95.6139 34.1204 95.7931 34.3674 95.9985 34.5405C96.1654 34.6844 96.3717 34.7753 96.591 34.8015C96.7395 34.6223 96.896 34.4483 97.0602 34.2796C96.8488 34.0916 96.6715 33.8689 96.5359 33.6211C96.2799 33.1566 96.1392 32.5851 96.1059 31.8744C96.1019 31.7876 96.1326 31.7028 96.1914 31.6387C96.2501 31.5745 96.3321 31.5361 96.4192 31.5321C96.5064 31.5281 96.5916 31.5586 96.6561 31.6171C96.7206 31.6756 96.7591 31.7572 96.7631 31.8439C96.792 32.4528 96.9064 32.9313 97.1127 33.3062C97.2224 33.5056 97.3688 33.6827 97.5444 33.8281C97.6178 33.7655 97.6921 33.7046 97.7672 33.6446C98.2951 33.2366 99.0204 32.8765 99.6321 33.1757Z" fill="currentColor"/>
</g>
<path d="M94.8 124.228C104.67 124.228 111.579 115.862 111.579 107.073C111.579 98.2844 104.67 89.9184 94.8 89.9184C84.93 89.9184 78.021 98.2844 78.021 107.073C78.021 115.862 84.93 124.228 94.8 124.228ZM94.8 122.301C87.045 122.301 80.559 115.298 80.559 107.073C80.559 98.8484 87.045 91.8454 94.8 91.8454C102.555 91.8454 109.041 98.8484 109.041 107.073C109.041 115.298 102.555 122.301 94.8 122.301ZM102.32 99.0364C102.32 98.3784 99.923 97.1094 96.116 97.1094C90.006 97.1094 85.353 101.01 85.353 106.838C85.353 112.807 89.63 116.567 96.116 116.567C99.547 116.567 102.132 115.486 102.273 114.922L103.119 111.35H102.367C101.286 114.076 99.829 115.533 96.304 115.533C91.557 115.533 88.784 112.149 88.784 106.838C88.784 101.527 91.557 98.1434 96.304 98.1434C100.017 98.1434 101.38 100.493 101.568 102.514H102.32V99.0364ZM133.284 114.687L131.686 114.405C130.417 117.648 129.524 119.481 125.247 119.481H117.116C117.21 117.977 120.312 115.016 122.991 112.619C127.644 108.483 133.237 104.864 133.237 98.8954C133.237 94.0074 129.759 89.9184 123.837 89.9184C119.043 89.9184 114.343 93.1144 114.343 97.7674C114.343 99.6004 115.518 101.198 117.304 101.198C119.184 101.198 119.607 99.6004 119.607 98.4254C119.607 96.3574 118.103 95.7934 118.103 94.8064C118.103 92.7854 120.453 91.7514 122.709 91.7514C125.999 91.7514 128.725 94.5714 128.725 99.0834C128.725 103.219 125.576 106.791 122.145 110.363C119.043 113.606 116.223 117.225 113.826 121.032V123.523H125.388C126.704 123.523 127.738 123.523 128.631 123.617C129.571 123.711 130.323 123.899 131.075 124.228L133.284 114.687ZM146.961 89.9184C142.073 89.9184 137.326 97.5794 137.326 107.073C137.326 116.191 140.992 124.228 146.961 124.228C152.93 124.228 156.596 114.123 156.596 107.073C156.596 97.5794 152.601 89.9184 146.961 89.9184ZM146.961 91.5164C151.003 91.5164 152.084 96.2164 152.084 107.073C152.084 117.93 150.627 122.63 146.961 122.63C142.825 122.63 141.838 118.917 141.838 107.073C141.838 96.2164 143.718 91.5164 146.961 91.5164ZM178.404 114.687L176.806 114.405C175.537 117.648 174.644 119.481 170.367 119.481H162.236C162.33 117.977 165.432 115.016 168.111 112.619C172.764 108.483 178.357 104.864 178.357 98.8954C178.357 94.0074 174.879 89.9184 168.957 89.9184C164.163 89.9184 159.463 93.1144 159.463 97.7674C159.463 99.6004 160.638 101.198 162.424 101.198C164.304 101.198 164.727 99.6004 164.727 98.4254C164.727 96.3574 163.223 95.7934 163.223 94.8064C163.223 92.7854 165.573 91.7514 167.829 91.7514C171.119 91.7514 173.845 94.5714 173.845 99.0834C173.845 103.219 170.696 106.791 167.265 110.363C164.163 113.606 161.343 117.225 158.946 121.032V123.523H170.508C171.824 123.523 172.858 123.523 173.751 123.617C174.691 123.711 175.443 123.899 176.195 124.228L178.404 114.687ZM190.436 124.228C196.828 124.228 201.434 120.609 201.434 114.687C201.434 109.799 198.003 106.744 193.538 105.804V105.71C197.063 104.582 200.306 102.279 200.306 98.0494C200.306 92.8324 195.465 89.9184 190.53 89.9184C187.663 89.9184 182.117 91.6574 182.117 95.4174C182.117 97.1564 183.104 97.9554 184.702 97.9554C186.441 97.9554 187.005 96.3574 187.005 95.1824C187.005 94.1954 186.77 93.5374 186.629 92.6914C187.616 91.8454 188.885 91.5164 190.248 91.5164C194.337 91.5164 195.794 95.0414 195.794 98.3784C195.794 102.091 193.726 105.193 189.825 105.193C189.073 105.193 188.885 104.911 188.133 104.911C187.663 104.911 187.005 105.24 187.005 105.851C187.005 106.509 187.569 106.838 188.133 106.838C188.885 106.838 189.543 106.509 189.966 106.509C194.196 106.509 196.922 109.705 196.922 114.546C196.922 118.447 195.042 122.63 190.06 122.63C188.415 122.63 186.535 122.066 186.535 121.314C186.535 120.75 186.582 120.186 186.582 119.622C186.582 118.071 185.924 115.721 183.715 115.721C181.882 115.721 181.318 117.131 181.318 118.212C181.318 122.207 185.83 124.228 190.436 124.228Z" fill="currentColor"/>
<path d="M229.92 55.5274V54.4714C229.92 52.9994 229.024 52.3754 227.312 52.3754C225.248 52.3754 224.592 53.2554 224.592 55.4154V61.2554C224.592 63.0474 225.248 64.1194 227.28 64.1194C228.192 64.1194 229.296 63.9754 229.92 63.8314V58.0234H227.264V59.3674H228.32V62.7594C228.112 62.8074 227.744 62.8714 227.296 62.8714C226.64 62.8714 226.192 62.2794 226.192 61.3514V55.5274C226.192 54.2954 226.56 53.6234 227.296 53.6234C227.92 53.6234 228.32 54.1194 228.32 54.9354V55.5274H229.92ZM234.26 55.2874C234.26 54.1514 234.644 53.6234 235.364 53.6234C236.1 53.6234 236.484 54.1514 236.484 55.2874V61.3514C236.484 62.3434 236.036 62.8714 235.364 62.8714C234.708 62.8714 234.26 62.3434 234.26 61.3514V55.2874ZM232.66 61.2554C232.66 63.0474 233.316 64.1194 235.364 64.1194C237.556 64.1194 238.084 62.6954 238.084 61.0794V55.2394C238.084 53.4474 237.428 52.3754 235.364 52.3754C233.188 52.3754 232.66 53.7994 232.66 55.4154V61.2554ZM240.647 62.0554C240.647 63.4954 241.655 64.1194 243.127 64.1194C245.031 64.1194 245.735 63.0794 245.735 61.2714C245.735 59.8794 245.447 59.3194 243.879 57.6874C242.407 56.1514 242.247 55.6714 242.247 54.8874C242.247 53.9914 242.551 53.6234 243.207 53.6234C243.831 53.6234 244.103 54.0074 244.103 54.6634V55.5754H245.607V54.4874C245.607 53.6714 245.415 53.2714 245.143 53.0154C244.759 52.6634 244.135 52.3754 243.271 52.3754C241.527 52.3754 240.647 53.1914 240.647 55.0794C240.647 56.6474 241.495 57.5754 242.519 58.5994C244.183 60.2474 244.231 60.5674 244.231 61.5434C244.231 62.2954 244.023 62.8714 243.175 62.8714C242.535 62.8714 242.247 62.3914 242.247 61.6234V60.6794H240.647V62.0554ZM247.849 53.8154H249.769V64.0234H251.369V53.8154H253.289V52.4714H247.849V53.8154ZM256.935 55.2874C256.935 54.1514 257.319 53.6234 258.039 53.6234C258.775 53.6234 259.159 54.1514 259.159 55.2874V61.3514C259.159 62.3434 258.711 62.8714 258.039 62.8714C257.383 62.8714 256.935 62.3434 256.935 61.3514V55.2874ZM255.335 61.2554C255.335 63.0474 255.991 64.1194 258.039 64.1194C260.231 64.1194 260.759 62.6954 260.759 61.0794V55.2394C260.759 53.4474 260.103 52.3754 258.039 52.3754C255.863 52.3754 255.335 53.7994 255.335 55.4154V61.2554ZM263.322 62.0554C263.322 63.4954 264.33 64.1194 265.802 64.1194C267.706 64.1194 268.41 63.0794 268.41 61.2714C268.41 59.8794 268.122 59.3194 266.554 57.6874C265.082 56.1514 264.922 55.6714 264.922 54.8874C264.922 53.9914 265.226 53.6234 265.882 53.6234C266.506 53.6234 266.778 54.0074 266.778 54.6634V55.5754H268.282V54.4874C268.282 53.6714 268.09 53.2714 267.818 53.0154C267.434 52.6634 266.81 52.3754 265.946 52.3754C264.202 52.3754 263.322 53.1914 263.322 55.0794C263.322 56.6474 264.17 57.5754 265.194 58.5994C266.858 60.2474 266.906 60.5674 266.906 61.5434C266.906 62.2954 266.698 62.8714 265.85 62.8714C265.21 62.8714 264.922 62.3914 264.922 61.6234V60.6794H263.322V62.0554ZM272.572 55.2874C272.572 54.1514 272.956 53.6234 273.676 53.6234C274.412 53.6234 274.796 54.1514 274.796 55.2874V61.3514C274.796 62.3434 274.348 62.8714 273.676 62.8714C273.02 62.8714 272.572 62.3434 272.572 61.3514V55.2874ZM270.972 61.2554C270.972 63.0474 271.628 64.1194 273.676 64.1194C275.868 64.1194 276.396 62.6954 276.396 61.0794V55.2394C276.396 53.4474 275.74 52.3754 273.676 52.3754C271.5 52.3754 270.972 53.7994 270.972 55.4154V61.2554ZM226.192 69.8154H226.832C228.192 69.8154 228.368 70.3914 228.368 72.1034V76.0714C228.368 78.0554 228.144 78.6794 226.96 78.6794H226.192V69.8154ZM224.592 80.0234H226.912C229.44 80.0234 229.968 79.0954 229.968 76.1354V72.6954C229.968 69.3354 229.76 68.4714 227.168 68.4714H224.592V80.0234ZM232.708 80.0234H237.06V78.6794H234.308V74.7754H236.9V73.4314H234.308V69.8154H237.06V68.4714H232.708V80.0234ZM239.354 80.0234H240.762V69.6234H240.794L242.586 80.0234H244.187L245.819 69.6234H245.851V80.0234H247.354V68.4714H244.875L243.403 77.2714H243.371L241.898 68.4714H239.354V80.0234ZM249.726 80.0234H251.326L251.854 77.0794H254.35L254.878 80.0234H256.478L254.126 68.4714H252.27L249.726 80.0234ZM253.102 70.1674H253.134L254.126 75.7354H252.094L253.102 70.1674ZM258.803 80.0234H260.403V68.4714H258.803V80.0234ZM262.963 78.0554C262.963 79.4954 263.971 80.1194 265.443 80.1194C267.347 80.1194 268.051 79.0794 268.051 77.2714C268.051 75.8794 267.763 75.3194 266.195 73.6874C264.723 72.1514 264.563 71.6714 264.563 70.8874C264.563 69.9914 264.867 69.6234 265.523 69.6234C266.147 69.6234 266.419 70.0074 266.419 70.6634V71.5754H267.923V70.4874C267.923 69.6714 267.731 69.2714 267.459 69.0154C267.075 68.6634 266.451 68.3754 265.587 68.3754C263.843 68.3754 262.963 69.1914 262.963 71.0794C262.963 72.6474 263.811 73.5754 264.835 74.5994C266.499 76.2474 266.547 76.5674 266.547 77.5434C266.547 78.2954 266.339 78.8714 265.491 78.8714C264.851 78.8714 264.563 78.3914 264.563 77.6234V76.6794H262.963V78.0554ZM270.613 80.0234H272.501V78.1354H270.613V80.0234Z" fill="currentColor"/>
<defs>
<clipPath id="clip0_320_298">
<rect width="106.429" height="80" fill="white" transform="translate(86.7858 0.523438)"/>
</clipPath>
</defs>
</svg>
