<svg width="14" height="13" viewBox="0 0 14 13" xmlns="http://www.w3.org/2000/svg">
<path d="M8.25 0.900057L13.75 6.15006C13.9062 6.30631 14 6.49381 14 6.71256C14 6.90006 13.9062 7.08756 13.75 7.24381L8.25 12.4938C7.96875 12.7751 7.46875 12.7751 7.1875 12.4626C6.90625 12.1813 6.90625 11.6813 7.21875 11.4001L11.375 7.46256H0.75C0.3125 7.46256 0 7.11881 0 6.71256C0 6.27506 0.3125 5.96256 0.75 5.96256H11.375L7.21875 1.99381C6.90625 1.71256 6.90625 1.21256 7.1875 0.931307C7.46875 0.618807 7.9375 0.618807 8.25 0.900057Z" fill="currentColor"/>
</svg>
