<svg viewBox="0 0 15 14" xmlns="http://www.w3.org/2000/svg">
<path d="M12.0862 11.252C11.9221 11.416 11.6213 11.416 11.4573 11.252L7.8479 7.61523L4.21118 11.252C4.04712 11.416 3.74634 11.416 3.58228 11.252C3.41821 11.0879 3.41821 10.7871 3.58228 10.623L7.21899 6.98633L3.58228 3.37695C3.41821 3.21289 3.41821 2.91211 3.58228 2.74805C3.74634 2.58398 4.04712 2.58398 4.21118 2.74805L7.8479 6.38477L11.4573 2.74805C11.6213 2.58398 11.9221 2.58398 12.0862 2.74805C12.2502 2.91211 12.2502 3.21289 12.0862 3.37695L8.44946 6.98633L12.0862 10.623C12.2502 10.7871 12.2502 11.0879 12.0862 11.252Z" fill="currentColor"/>
</svg>
