<svg xmlns="http://www.w3.org/2000/svg" width="33" viewBox="0 0 33 33"><path fill="currentColor" fill-rule="evenodd" d="m12.75 3.06 3.08 4.84 3.03-4.84A4.58 4.58 0 0 1 22.69.9h.18a4.38 4.38 0 0 1 4.31 4.32c0 1.28-.56 2.4-1.4 3.18h2.24a2.95 2.95 0 0 1 2.91 2.91v1.88c0 1.25-.81 2.32-1.87 2.76v11.3a3.84 3.84 0 0 1-3.85 3.85H6.46a3.8 3.8 0 0 1-3.85-3.85v-11.3A2.96 2.96 0 0 1 .73 13.2v-1.9a2.91 2.91 0 0 1 2.92-2.9h2.19A4.34 4.34 0 0 1 8.8.9h.12c1.56 0 3 .84 3.83 2.16Zm14.33 2.16ZM16.84 8.4l3-4.77a3.3 3.3 0 0 1 2.85-1.6h.18c1.7 0 3.18 1.49 3.18 3.19a3.21 3.21 0 0 1-3.18 3.18h-6.03ZM8.92 2.04c1.2 0 2.28.62 2.84 1.59l3.01 4.77H8.8a3.18 3.18 0 1 1 0-6.36h.12ZM1.87 11.3c0-.94.78-1.77 1.78-1.77h11.62v5.42H3.65c-1 0-1.78-.77-1.78-1.77V11.3Zm26.15 3.65H16.4V9.54h11.62c.94 0 1.78.83 1.78 1.77v1.88c0 1-.84 1.77-1.78 1.77ZM15.27 16.1v13.86H6.46a2.68 2.68 0 0 1-2.71-2.71V16.1h11.52Zm12.65 11.15a2.71 2.71 0 0 1-2.71 2.71h-8.8V16.1h11.51v11.15Z" clip-rule="evenodd"/></svg>
