<svg width="28" height="28" viewBox="0 0 28 28" xmlns="http://www.w3.org/2000/svg">
<path fill="currentColor" d="M14 5.52344L16.0781 2.13281C16.8984 0.820312 18.375 0 19.9609 0H20.125C22.5312 0 24.5 1.96875 24.5 4.375C24.5 5.41406 24.1719 6.28906 23.625 7H25.375C26.7969 7 28 8.20312 28 9.625V13.125C28 14.2734 27.2344 15.2578 26.25 15.6406V24.5C26.25 26.4688 24.6641 28 22.75 28H5.25C3.28125 28 1.75 26.4688 1.75 24.5V15.6406C0.710938 15.2578 0 14.2734 0 13.125V9.625C0 8.20312 1.14844 7 2.625 7H4.32031C3.77344 6.28906 3.5 5.41406 3.5 4.375C3.5 1.96875 5.41406 0 7.875 0H7.98438C9.57031 0 11.0469 0.820312 11.8672 2.13281L14 5.52344ZM19.9609 1.75C18.9766 1.75 18.1016 2.29688 17.5547 3.0625L15.0938 7H20.125C21.5469 7 22.75 5.85156 22.75 4.375C22.75 2.95312 21.5469 1.75 20.125 1.75H19.9609ZM12.8516 7L10.3906 3.0625C9.84375 2.29688 8.96875 1.75 7.98438 1.75H7.875C6.39844 1.75 5.25 2.95312 5.25 4.375C5.25 5.85156 6.39844 7 7.875 7H12.8516ZM2.625 8.75C2.13281 8.75 1.75 9.1875 1.75 9.625V13.125C1.75 13.6172 2.13281 14 2.625 14H13.125V8.75H2.625ZM14.875 14H25.375C25.8125 14 26.25 13.6172 26.25 13.125V9.625C26.25 9.1875 25.8125 8.75 25.375 8.75H14.875V14ZM13.125 15.75H3.5V24.5C3.5 25.4844 4.26562 26.25 5.25 26.25H13.125V15.75ZM14.875 26.25H22.75C23.6797 26.25 24.5 25.4844 24.5 24.5V15.75H14.875V26.25Z" />
</svg>
