<svg viewBox="0 0 15 15" xmlns="http://www.w3.org/2000/svg">
<path d="M13.5217 2.34619C13.7405 2.34619 13.9592 2.56494 13.9592 2.78369C13.9592 3.02979 13.7405 3.22119 13.5217 3.22119H13.0022L12.3186 12.9829C12.2366 13.9126 11.4709 14.5962 10.5686 14.5962H5.07251C4.17017 14.5962 3.40454 13.9126 3.32251 12.9829L2.63892 3.22119H2.14673C1.90063 3.22119 1.70923 3.02979 1.70923 2.78369C1.70923 2.56494 1.90063 2.34619 2.14673 2.34619H4.74438L5.45532 1.2251C5.67407 0.842285 6.11157 0.596191 6.54907 0.596191H9.09204C9.52954 0.596191 9.96704 0.842285 10.1858 1.2251L10.8967 2.34619H13.5217ZM6.54907 1.47119C6.41235 1.47119 6.27563 1.55322 6.1936 1.68994L5.7561 2.34619H9.88501L9.44751 1.68994C9.36548 1.55322 9.22876 1.47119 9.09204 1.47119H6.54907ZM12.1272 3.22119H3.51392L4.19751 12.9282C4.22485 13.3657 4.60767 13.7212 5.07251 13.7212H10.5686C11.0334 13.7212 11.4163 13.3657 11.4436 12.9282L12.1272 3.22119Z" fill="currentColor"/>
</svg>
