<svg width="292" height="46" viewBox="0 0 292 46" xmlns="http://www.w3.org/2000/svg">
<path d="M13.0658 42.611C12.5358 43.251 12.5658 43.331 13.3058 43.181C13.5165 43.1421 13.7158 43.0562 13.8889 42.9299C14.062 42.8035 14.2044 42.6399 14.3058 42.451C14.5758 41.631 13.7358 41.741 13.0158 42.611M150.906 25.521C150.476 26.211 151.406 27.021 152.266 26.691C152.466 26.6083 152.64 26.4705 152.765 26.2936C152.891 26.1166 152.964 25.9077 152.976 25.691C152.976 24.891 151.366 24.691 150.906 25.491M97.0958 24.791C96.7458 25.681 97.1658 26.091 98.0958 25.791C99.0258 25.491 98.9958 24.791 98.0958 24.411C98.0029 24.366 97.9013 24.3415 97.7981 24.3392C97.6949 24.3369 97.5924 24.3568 97.4976 24.3976C97.4027 24.4384 97.3177 24.4991 97.2484 24.5756C97.1791 24.6521 97.127 24.7426 97.0958 24.841M23.6858 12.681C19.7958 15.751 15.9158 21.311 12.5158 28.681C8.72577 36.871 8.08577 40.551 10.1258 42.581C11.2458 43.701 12.1958 44.041 12.1958 43.311C12.0051 42.8369 11.6909 42.4226 11.2858 42.111C10.0358 40.991 10.0958 38.291 11.4458 34.331C15.1858 23.331 24.6458 10.611 27.6758 12.481C28.0058 12.691 27.8658 13.281 27.2458 14.291C26.2458 15.921 26.0658 16.821 26.7658 16.821C27.4658 16.821 29.0558 13.411 29.0558 12.051C29.0558 11.051 28.8558 10.901 27.4958 10.901C26.3758 10.901 25.3158 11.391 23.6858 12.681ZM54.1058 25.681C54.1071 25.7712 54.0905 25.8607 54.0569 25.9443C54.0233 26.028 53.9735 26.1041 53.9102 26.1683C53.8469 26.2326 53.7715 26.2835 53.6883 26.3183C53.6052 26.3531 53.5159 26.371 53.4258 26.371C52.7158 26.371 52.5258 25.831 53.0458 25.301C53.5658 24.771 54.1058 24.971 54.1058 25.681ZM37.5958 8.05103C35.7494 10.7756 34.1018 13.6296 32.6658 16.591C30.6058 20.591 28.3358 24.861 27.6658 26.051C25.5958 29.501 26.0558 30.191 28.6658 27.531C30.4458 25.681 30.9058 25.591 31.9758 26.841C32.5622 27.3803 33.3202 27.695 34.1161 27.7298C34.912 27.7646 35.6946 27.5171 36.3258 27.031C37.1558 26.451 37.4958 26.421 38.0458 26.871C38.5958 27.321 38.9558 27.311 39.8858 26.811C40.8158 26.311 41.1058 26.281 41.4858 26.971C42.0458 27.971 42.7458 27.971 44.1558 26.861L45.2258 25.991L46.2258 27.221L47.2258 28.451L48.8558 27.581C50.4258 26.741 50.5158 26.741 51.3958 27.581C51.6338 27.8907 51.9833 28.0953 52.3699 28.1513C52.7564 28.2074 53.1496 28.1104 53.4658 27.881C54.052 27.6371 54.5457 27.2134 54.8758 26.671C54.9203 26.4905 55.0208 26.3286 55.163 26.2088C55.3052 26.0889 55.4817 26.0172 55.6671 26.0038C55.8526 25.9905 56.0376 26.0363 56.1954 26.1346C56.3533 26.2329 56.4759 26.3787 56.5458 26.551C56.6958 26.971 57.2758 26.831 58.6658 26.061C59.279 25.6519 59.9544 25.3446 60.6658 25.151C61.4858 26.821 61.8758 27.091 63.5058 27.151C64.6177 27.1746 65.7231 26.974 66.7558 26.561C68.0558 25.961 68.3258 25.971 69.2458 26.561C70.4758 27.421 74.6558 27.561 75.4558 26.741C76.5358 25.661 75.9858 25.361 73.4558 25.671C71.5158 25.911 70.6658 25.811 69.6558 25.221C68.4458 24.501 68.2658 24.501 66.8758 25.221C65.4858 25.941 65.3958 25.971 65.6858 25.041C65.9258 24.301 65.7958 24.101 65.0458 24.101C64.5258 24.101 64.1058 24.381 64.1058 24.731C64.1058 25.271 63.1958 25.921 62.4458 25.921C62.1078 25.5273 61.8709 25.057 61.7558 24.551C61.1758 22.891 60.4958 22.831 59.0958 24.331C56.9658 26.591 56.6958 25.431 58.4058 21.331C59.7258 18.221 59.7958 17.691 58.9058 17.691C58.5158 17.691 57.9058 18.831 57.2958 20.541C56.0558 24.361 55.6758 24.991 54.9858 24.221C54.2958 23.451 53.3958 23.521 52.3758 24.611C51.8858 25.141 51.3058 25.461 51.0858 25.321C50.8658 25.181 50.0858 25.471 49.3358 25.951C47.5858 27.111 47.4658 27.091 46.6258 25.471L45.9158 24.091L44.4058 25.241C42.5358 26.671 42.3058 26.671 42.3058 25.241C42.3058 23.811 41.3758 23.751 40.5858 25.011C39.7958 26.271 38.6558 26.191 38.6558 25.011C38.6558 23.201 36.1558 23.391 35.4458 25.251C35.3192 25.5636 35.1049 25.8329 34.8288 26.0266C34.5528 26.2203 34.2266 26.3301 33.8896 26.3428C33.5526 26.3554 33.2191 26.2705 32.9292 26.0981C32.6394 25.9257 32.4055 25.6732 32.2558 25.371C32.1307 25.0666 31.8956 24.8205 31.5973 24.6815C31.299 24.5426 30.9593 24.521 30.6458 24.621C29.2958 24.881 29.2958 24.881 30.6458 22.791C31.2258 21.851 33.0058 18.561 34.5958 15.471C35.7517 13.0595 37.1488 10.7711 38.7658 8.64103C39.2628 8.22187 39.6767 7.71304 39.9858 7.14103C39.9858 6.38103 38.7258 6.87103 37.5958 8.05103ZM141.436 29.991C142.536 32.071 142.846 34.781 142.036 35.271C141.226 35.761 139.836 34.991 139.346 33.591C139.02 32.3984 138.855 31.1674 138.856 29.931C138.856 28.081 138.986 27.711 139.616 27.831C140.425 28.3527 141.059 29.1051 141.436 29.991ZM116.266 23.151C116.566 23.631 115.266 24.811 114.866 24.421C114.466 24.031 115.036 22.741 115.576 22.741C115.715 22.7506 115.85 22.7926 115.97 22.8638C116.089 22.9351 116.191 23.0334 116.266 23.151ZM119.886 7.99103C120.516 9.62103 117.146 14.991 113.976 17.451C107.846 22.161 106.886 22.841 106.536 22.711C106.186 22.581 107.226 20.301 108.536 17.531C111.116 12.061 113.176 9.53103 116.256 8.17103C118.536 7.17103 119.536 7.08103 119.886 7.99103ZM112.176 5.38103C111.345 6.77806 110.674 8.26407 110.176 9.81103C109.306 11.991 107.986 15.191 107.266 16.821C104.776 22.311 103.826 25.001 104.266 25.291C104.506 25.441 105.116 25.201 105.616 24.751C106.486 23.961 106.616 23.961 108.616 24.751C111.996 26.101 115.226 26.191 116.916 24.981C118.216 24.061 118.386 24.041 119.126 24.711C120.046 25.551 121.756 25.661 123.506 24.991C123.879 24.8161 124.294 24.7505 124.703 24.8018C125.112 24.8532 125.497 25.0193 125.816 25.281C126.637 25.6779 127.549 25.8455 128.458 25.7663C129.366 25.6871 130.236 25.364 130.976 24.831C131.297 24.6123 131.66 24.4621 132.042 24.3899C132.424 24.3176 132.817 24.3248 133.196 24.411C133.941 24.563 134.716 24.4386 135.376 24.061C136.116 23.451 136.186 23.491 137.746 25.581C138.616 26.721 138.646 26.961 138.056 28.081C137.639 29.0289 137.431 30.0555 137.447 31.0908C137.462 32.1262 137.701 33.1461 138.146 34.081C139.746 38.081 143.786 37.541 143.786 33.321C143.786 31.321 143.236 30.041 141.386 27.821C140.276 26.491 139.866 25.601 140.006 24.821C140.396 22.821 144.436 17.471 146.606 16.131C148.776 14.791 153.496 13.821 154.866 14.541C155.626 14.941 155.636 15.061 154.976 16.061C154.106 17.401 154.066 18.061 154.876 18.061C156.126 18.061 157.326 14.341 156.336 13.511C155.126 12.511 149.396 13.091 146.746 14.511C144.096 15.931 140.276 20.511 139.836 22.721C139.476 24.521 138.786 24.821 137.836 23.611C137.563 23.2917 137.371 22.9117 137.275 22.5028C137.18 22.094 137.183 21.6682 137.286 21.261C137.486 20.261 137.386 19.921 136.856 19.921C136.126 19.921 135.616 20.841 135.616 22.181C135.616 23.521 134.166 23.751 133.256 22.561L132.456 21.511L131.746 22.511C131.062 23.2495 130.191 23.7886 129.226 24.071C127.646 24.541 127.306 24.501 126.506 23.781C125.706 23.061 125.356 23.021 123.826 23.481C121.276 24.251 120.326 24.141 119.536 22.981C118.996 22.191 118.716 22.081 118.286 22.501C117.856 22.921 117.536 22.821 116.896 22.041C115.896 20.851 114.786 21.311 113.826 23.281C113.286 24.371 113.036 24.481 111.826 24.211C109.576 23.721 108.326 23.161 108.326 22.651C108.331 22.5272 108.384 22.4102 108.473 22.3245C108.563 22.2387 108.682 22.1909 108.806 22.191C109.865 21.7637 110.871 21.2168 111.806 20.561C118.126 16.511 122.956 9.05103 120.806 6.66103C119.346 5.04103 116.806 5.75103 112.986 8.83103C110.986 10.481 110.856 10.141 112.556 7.24103C113.416 5.77103 113.166 4.54103 112.156 5.24103M88.2858 28.911C88.2858 29.801 86.0458 34.261 85.3758 34.681C83.6558 35.781 84.4758 32.211 86.5658 29.571C87.7258 28.091 88.2858 27.881 88.2858 28.911ZM93.2858 4.54103C93.2858 5.29103 91.8758 7.82103 91.6058 7.54103C91.3358 7.26103 92.3758 4.05103 92.8658 4.05103C92.9842 4.06124 93.0942 4.11693 93.1725 4.20642C93.2508 4.29592 93.2914 4.41225 93.2858 4.53103M92.2858 3.10103C91.4658 4.10103 90.9858 5.43103 90.6058 7.79103C90.2035 9.99714 89.5631 12.1531 88.6958 14.221C86.4058 19.321 83.7958 27.461 84.2858 27.971C84.7758 28.481 86.2858 26.721 87.4158 23.701C88.4158 20.971 88.3258 20.141 87.1758 22.121C86.3158 23.611 86.3758 23.381 88.0558 18.291C88.7358 16.221 89.4758 14.531 89.6858 14.531C89.8958 14.531 89.8658 15.201 89.6158 16.011C89.2394 17.9899 89.032 19.9971 88.9958 22.011L88.8258 26.561L86.5258 28.611C83.4258 31.411 82.3258 34.601 83.9858 35.991C84.5658 36.481 84.8958 36.421 85.8958 35.671C87.4658 34.501 88.4558 32.671 89.1758 29.671C89.6858 27.561 89.9558 27.171 91.3558 26.591C92.1928 26.2356 93.0801 26.0129 93.9858 25.931C95.2658 25.931 95.8858 25.121 94.9058 24.741C94.2658 24.501 93.2958 24.741 90.8258 25.741C90.0058 26.071 89.9758 25.881 90.2658 22.031C90.7358 15.821 91.8658 10.501 93.3458 7.54103C95.4458 3.34103 94.6658 0.241034 92.2358 3.12103" fill="currentColor"/>
<path d="M209.781 19.1081C209.781 19.7181 206.981 23.1081 204.881 25.1081C202.986 26.7339 200.981 28.2275 198.881 29.5781L191.981 34.0581C190.357 35.1231 188.659 36.0721 186.901 36.8981C184.901 37.7181 181.821 38.0381 181.821 37.4181C181.821 35.5281 185.491 31.6481 191.821 26.8581C195.431 23.9238 199.603 21.7594 204.081 20.4981C209.141 18.8381 209.791 18.6781 209.791 19.1581M239.911 2.58809C234.617 4.75815 229.949 8.21615 226.331 12.6481C225.701 13.4381 225.261 13.7481 225.141 13.4581C224.811 12.6181 224.141 12.9981 222.041 15.2081C220.891 16.4181 219.791 17.3181 219.611 17.2081C219.363 16.5016 219.314 15.7403 219.471 15.0081C219.661 13.1681 219.621 13.0081 218.931 13.0081C218.471 13.0081 217.521 13.7781 216.481 15.0081C214.561 17.2481 213.141 17.7381 213.571 16.0081C214.131 13.7381 214.201 13.0081 213.861 13.0081C213.181 13.0081 212.731 13.9281 212.621 15.5281C212.481 17.3981 211.621 18.0581 211.621 16.2881C211.592 15.4231 211.339 14.5804 210.887 13.8424C210.435 13.1044 209.799 12.4965 209.041 12.0781C207.801 11.2881 207.041 11.0781 203.881 10.9481C201.358 10.7048 198.812 10.9493 196.381 11.6681C191.271 12.8981 186.041 14.9581 185.881 15.7481C185.721 16.5381 186.351 16.4081 190.731 14.7481C192.744 13.9818 194.805 13.3471 196.901 12.8481C200.291 12.1081 205.401 12.0181 207.321 12.6481C208.166 12.9085 208.916 13.4095 209.481 14.0896C210.046 14.7698 210.4 15.5998 210.501 16.4781C210.501 17.6281 210.441 17.6781 208.781 17.9081C204.289 18.8969 199.944 20.4598 195.851 22.5581C192.851 24.2981 191.601 25.2381 187.041 29.1281C181.771 33.5781 179.251 37.9581 181.561 38.5481C184.561 39.3481 187.711 38.2481 193.811 34.2781C195.301 33.2781 198.161 31.4481 200.161 30.1481C204.631 27.2581 208.331 23.7181 210.011 20.7181C210.428 19.8895 210.938 19.1111 211.531 18.3981C211.671 18.3981 212.751 18.3181 213.951 18.2781C215.431 18.2281 216.101 18.0681 216.031 17.7681C215.921 17.2481 217.701 14.7681 218.201 14.7681C218.391 14.7681 218.501 15.5481 218.431 16.4981C218.321 18.0781 218.431 18.2281 219.171 18.3381C219.911 18.4481 220.491 17.9781 221.951 16.4381C222.598 15.7079 223.311 15.0384 224.081 14.4381C224.731 14.4381 224.081 15.7381 222.081 18.1981C219.007 22.267 216.328 26.6201 214.081 31.1981C213.49 32.5095 212.788 33.7675 211.981 34.9581C211.341 35.3581 211.981 36.2481 212.981 36.2481C213.651 36.2481 213.831 36.0981 213.671 35.6881C213.411 34.9981 215.481 30.8181 218.821 25.3281C223.101 18.3281 223.731 17.4181 224.571 17.3981C225.406 17.2272 226.204 16.9125 226.931 16.4681C227.723 15.998 228.599 15.6888 229.511 15.5581C230.151 15.5581 230.511 15.3681 230.511 15.0181C230.511 14.1181 228.281 14.3381 226.881 15.3781C225.481 16.4181 225.061 16.4981 225.061 15.7981C225.061 15.0981 232.061 8.46809 234.591 6.73809C237.121 5.00809 242.511 2.73809 242.951 3.17809C243.391 3.61809 242.611 5.95809 241.291 7.84809C239.217 10.7246 236.507 13.0827 233.371 14.7381C232.302 15.2146 231.295 15.819 230.371 16.5381C229.689 17.126 228.92 17.6049 228.091 17.9581C226.761 18.6181 226.091 19.1481 226.091 19.5981C226.091 20.5181 226.371 20.4581 228.841 18.9481C230.021 18.2281 231.731 17.2181 232.631 16.7181C233.531 16.2181 234.751 15.4881 235.351 15.1281C236.541 14.3981 237.901 14.2581 238.251 14.8081C238.491 15.1981 237.441 17.0181 236.721 17.4681C236.574 17.5896 236.457 17.7426 236.377 17.9157C236.297 18.0888 236.258 18.2776 236.261 18.4681C236.261 19.3181 237.261 19.4081 238.261 18.6481C239.261 17.8881 243.801 16.2881 244.391 16.5081C244.537 16.598 244.66 16.7205 244.75 16.8658C244.841 17.0112 244.896 17.1755 244.913 17.3459C244.929 17.5163 244.906 17.6883 244.845 17.8483C244.784 18.0082 244.687 18.1519 244.561 18.2681C243.681 18.8181 234.401 30.4981 234.401 31.0681C234.27 31.3891 234.072 31.6788 233.821 31.9181C233.501 32.2781 233.351 32.7381 233.481 32.9181C233.881 33.5681 234.701 33.3481 234.961 32.5281C235.221 31.7081 239.701 25.8281 244.141 20.4181L247.251 16.6581L249.331 16.8781C250.241 17.0192 251.171 16.9681 252.061 16.7281C252.581 16.4481 252.291 16.3181 250.671 16.1181C249.913 16.0756 249.168 15.8996 248.471 15.5981C249.58 13.9368 250.842 12.3833 252.241 10.9581C255.181 7.69809 256.821 6.21809 258.701 5.10809C261.551 3.41809 263.891 2.77809 263.891 3.69809C263.891 4.95809 261.331 9.09809 259.361 11.0081C258.951 11.4081 257.901 12.5981 257.041 13.6381C255.663 15.1302 254.112 16.4528 252.421 17.5781C250.751 18.6981 249.421 19.7581 249.571 19.9381C250.001 20.6281 251.141 20.2081 253.211 18.5881C255.292 16.8749 257.722 15.6361 260.331 14.9581C262.661 14.2781 263.031 14.3781 262.411 15.5381C261.791 16.6981 262.241 18.0781 263.071 18.0781C264.327 17.886 265.569 17.6155 266.791 17.2681C269.291 16.5981 270.791 16.4481 275.111 16.4481C278.011 16.4481 280.931 16.5281 281.611 16.6281C283.101 16.8481 283.521 16.1581 282.301 15.4981C281.081 14.8381 271.301 14.9781 268.061 15.7281C266.966 15.9739 265.892 16.3083 264.851 16.7281C264.495 16.9063 264.088 16.9523 263.701 16.8581C263.271 16.6981 263.281 16.4381 263.701 15.1381C264.461 12.9881 264.051 12.7681 261.021 13.6881C260.039 14.0111 259.037 14.2683 258.021 14.4581C257.761 14.4581 258.381 13.5981 259.411 12.5581C263.411 8.43809 265.331 5.10809 264.821 3.05809C264.601 2.23809 264.381 2.11809 263.091 2.11809C259.651 2.11809 254.091 6.41809 248.581 13.3681C247.925 14.2664 247.185 15.1002 246.371 15.8581C245.9 15.8685 245.434 15.7656 245.011 15.5581C244.181 15.2081 243.651 15.2381 242.291 15.6981C241.391 16.0014 240.523 16.3934 239.701 16.8681C238.521 17.6381 238.371 17.4281 239.061 15.9981C239.751 14.5681 239.491 13.7281 238.461 13.7281C237.431 13.7281 237.551 13.1581 238.731 12.4381C240.562 10.8891 242.112 9.03516 243.311 6.95809C244.051 5.52809 244.601 3.06809 244.311 2.55809C243.831 1.78809 241.931 1.81809 239.931 2.62809" fill="currentColor"/>
</svg>
